M48
; DRILL file {KiCad 8.0.3} date 2024-07-29T19:47:39-0600
; FORMAT={-:-/ absolute / inch / decimal}
; #@! TF.CreationDate,2024-07-29T19:47:39-06:00
; #@! TF.GenerationSoftware,Kicad,Pcbnew,8.0.3
; #@! TF.FileFunction,Plated,1,2,PTH
FMAT,2
INCH
; #@! TA.AperFunction,Plated,PTH,ViaDrill
T1C0.0118
; #@! TA.AperFunction,Plated,PTH,ComponentDrill
T2C0.0374
%
G90
G05
T1
X5.315Y-3.5335
X5.3839Y-3.4252
X5.3839Y-3.8189
X5.3937Y-3.6974
X5.5217Y-3.622
X5.5315Y-3.5531
X5.55Y-3.2914
X5.5815Y-3.748
X5.6315Y-3.5531
X5.6315Y-3.748
X5.6496Y-3.6516
X5.6594Y-3.435
X5.6791Y-3.3563
X5.6815Y-3.5531
X5.6815Y-3.748
X5.7579Y-3.289
X5.9154Y-3.4291
T2
X5.2967Y-3.2002
X5.2967Y-3.9002
X5.3967Y-3.2002
X5.3967Y-3.9002
X5.4967Y-3.2002
X5.4967Y-3.9002
X5.5967Y-3.2002
X5.5967Y-3.9002
X5.6967Y-3.2002
X5.6967Y-3.9002
X5.7967Y-3.2002
X5.7967Y-3.9002
X5.8967Y-3.2002
X5.8967Y-3.9002
X5.9967Y-3.2002
X5.9967Y-3.9002
M30
