%TF.GenerationSoftware,KiCad,Pcbnew,8.0.3*%
%TF.CreationDate,2024-07-29T19:47:32-06:00*%
%TF.ProjectId,SaintCon Says Badge,5361696e-7443-46f6-9e20-536179732042,rev?*%
%TF.SameCoordinates,Original*%
%TF.FileFunction,Legend,Top*%
%TF.FilePolarity,Positive*%
%FSLAX46Y46*%
G04 Gerber Fmt 4.6, Leading zero omitted, Abs format (unit mm)*
G04 Created by KiCad (PCBNEW 8.0.3) date 2024-07-29 19:47:32*
%MOMM*%
%LPD*%
G01*
G04 APERTURE LIST*
%ADD10C,0.300000*%
%ADD11C,0.150000*%
%ADD12C,0.120000*%
G04 APERTURE END LIST*
D10*
G36*
X134728367Y-90304501D02*
G01*
X134708515Y-90180257D01*
X134710659Y-90157344D01*
X134753441Y-90042089D01*
X134760729Y-90032170D01*
X134862915Y-89959652D01*
X134866974Y-89958286D01*
X134989125Y-89962215D01*
X135014131Y-89971720D01*
X135119680Y-90041269D01*
X135139916Y-90062700D01*
X135234637Y-90140919D01*
X135265701Y-90157344D01*
X135380204Y-90205172D01*
X135470865Y-90230617D01*
X135594513Y-90254026D01*
X135617411Y-90256263D01*
X135739487Y-90261565D01*
X135768230Y-90261758D01*
X135868981Y-90231228D01*
X135961793Y-90165282D01*
X136031984Y-90062099D01*
X136036898Y-90044993D01*
X136039907Y-89920832D01*
X136036898Y-89908217D01*
X135983136Y-89798489D01*
X135971563Y-89784263D01*
X135870784Y-89714005D01*
X135853715Y-89708548D01*
X135735105Y-89672033D01*
X135608022Y-89641989D01*
X135582606Y-89637107D01*
X135457706Y-89611490D01*
X135336026Y-89581580D01*
X135320045Y-89577267D01*
X135203356Y-89538332D01*
X135092570Y-89486786D01*
X135078244Y-89478960D01*
X134975088Y-89406644D01*
X134885830Y-89317118D01*
X134867585Y-89295167D01*
X134801935Y-89191917D01*
X134797365Y-89179152D01*
X134765523Y-89061049D01*
X134763171Y-89051535D01*
X134750892Y-88920474D01*
X134768791Y-88796901D01*
X134791870Y-88738293D01*
X134854164Y-88630652D01*
X134928846Y-88532128D01*
X134952459Y-88505652D01*
X135041501Y-88420382D01*
X135147361Y-88344476D01*
X135232728Y-88299267D01*
X135352483Y-88252441D01*
X135476360Y-88220040D01*
X135561235Y-88206454D01*
X135690893Y-88197553D01*
X135821582Y-88202905D01*
X135909281Y-88214392D01*
X136039054Y-88241669D01*
X136163675Y-88280452D01*
X136243893Y-88312700D01*
X136342859Y-88390079D01*
X136362351Y-88432379D01*
X136372026Y-88557035D01*
X136364183Y-88591137D01*
X136298261Y-88698826D01*
X136275034Y-88718754D01*
X136158205Y-88757111D01*
X136120551Y-88753558D01*
X135998417Y-88725826D01*
X135946528Y-88712648D01*
X135824712Y-88684026D01*
X135784106Y-88676011D01*
X135659278Y-88671432D01*
X135650383Y-88672348D01*
X135526914Y-88694154D01*
X135514829Y-88697383D01*
X135396981Y-88735851D01*
X135315771Y-88780425D01*
X135255931Y-88850645D01*
X135222958Y-88947121D01*
X135273639Y-89055198D01*
X135384795Y-89113111D01*
X135396981Y-89116870D01*
X135518366Y-89142093D01*
X135643240Y-89166243D01*
X135660153Y-89169382D01*
X135786296Y-89197145D01*
X135910562Y-89233496D01*
X135926988Y-89238991D01*
X136046307Y-89286280D01*
X136158113Y-89344571D01*
X136172452Y-89353175D01*
X136272254Y-89428630D01*
X136357567Y-89524479D01*
X136367847Y-89538799D01*
X136440288Y-89638718D01*
X136490457Y-89750711D01*
X136495464Y-89766556D01*
X136521367Y-89886197D01*
X136525336Y-90013813D01*
X136524773Y-90021789D01*
X136504775Y-90147117D01*
X136464323Y-90267864D01*
X136404636Y-90378384D01*
X136325715Y-90474249D01*
X136233346Y-90554316D01*
X136195655Y-90580495D01*
X136088837Y-90646326D01*
X136050942Y-90667812D01*
X135931444Y-90717300D01*
X135805592Y-90743947D01*
X135718161Y-90749023D01*
X135595929Y-90742817D01*
X135473553Y-90724202D01*
X135362177Y-90696510D01*
X135242254Y-90655777D01*
X135126804Y-90604943D01*
X135025732Y-90549965D01*
X134922417Y-90482804D01*
X134822054Y-90404766D01*
X134755233Y-90342969D01*
X134728367Y-90304501D01*
G37*
G36*
X137809670Y-88105812D02*
G01*
X137849180Y-88135624D01*
X137944398Y-88236467D01*
X138033134Y-88342076D01*
X138115388Y-88452450D01*
X138191158Y-88567590D01*
X138260445Y-88687496D01*
X138282100Y-88728524D01*
X138344761Y-88852873D01*
X138404975Y-88978166D01*
X138462742Y-89104405D01*
X138518061Y-89231588D01*
X138570934Y-89359715D01*
X138588014Y-89402634D01*
X138712297Y-89401173D01*
X138746161Y-89402634D01*
X138861695Y-89449300D01*
X138885380Y-89471632D01*
X138948098Y-89579359D01*
X138949494Y-89587037D01*
X138937892Y-89706716D01*
X138868283Y-89806245D01*
X138759053Y-89861629D01*
X138750436Y-89863642D01*
X138782225Y-89983421D01*
X138810275Y-90105538D01*
X138817602Y-90140858D01*
X138841378Y-90264627D01*
X138861413Y-90389098D01*
X138866451Y-90424790D01*
X138866451Y-90451657D01*
X138827081Y-90569574D01*
X138808443Y-90596981D01*
X138712798Y-90675351D01*
X138701587Y-90680024D01*
X138578199Y-90686586D01*
X138573970Y-90685519D01*
X138467147Y-90616676D01*
X138448796Y-90595150D01*
X138395006Y-90480920D01*
X138392009Y-90457763D01*
X138376630Y-90336338D01*
X138371249Y-90308775D01*
X138346562Y-90188282D01*
X138316466Y-90065858D01*
X138280960Y-89941502D01*
X138258897Y-89871580D01*
X138124253Y-89871580D01*
X137990285Y-89871580D01*
X137856993Y-89871580D01*
X137783234Y-89871580D01*
X137650608Y-89871580D01*
X137517885Y-89871580D01*
X137385065Y-89871580D01*
X137311235Y-89871580D01*
X137273348Y-89992513D01*
X137251395Y-90076744D01*
X137222312Y-90199229D01*
X137203157Y-90281297D01*
X137176252Y-90400709D01*
X137168353Y-90441887D01*
X137120649Y-90558970D01*
X137098743Y-90587212D01*
X136998900Y-90663109D01*
X136957083Y-90673918D01*
X136833492Y-90655017D01*
X136822138Y-90648883D01*
X136735184Y-90559925D01*
X136725662Y-90542637D01*
X136697842Y-90423454D01*
X136700628Y-90378384D01*
X136719503Y-90251783D01*
X136747034Y-90142079D01*
X136782807Y-90018813D01*
X136812369Y-89910048D01*
X136845883Y-89786542D01*
X136881169Y-89663776D01*
X136918226Y-89541750D01*
X136957054Y-89420465D01*
X136963059Y-89402634D01*
X137462055Y-89402634D01*
X137592257Y-89402634D01*
X137719163Y-89402634D01*
X137781402Y-89402634D01*
X137905589Y-89402634D01*
X138028022Y-89402634D01*
X138076936Y-89402634D01*
X138025406Y-89283209D01*
X137971568Y-89164218D01*
X137920621Y-89056420D01*
X137861003Y-88940058D01*
X137796336Y-88827738D01*
X137733164Y-88729134D01*
X137681005Y-88846040D01*
X137631155Y-88962513D01*
X137587840Y-89068021D01*
X137542397Y-89183320D01*
X137499264Y-89298330D01*
X137462055Y-89402634D01*
X136963059Y-89402634D01*
X136997653Y-89299921D01*
X137040023Y-89180118D01*
X137084163Y-89061055D01*
X137130075Y-88942732D01*
X137177758Y-88825150D01*
X137227212Y-88708309D01*
X137261165Y-88630826D01*
X137309403Y-88527634D01*
X137357641Y-88427494D01*
X137410305Y-88315936D01*
X137411985Y-88312090D01*
X137473208Y-88202343D01*
X137475488Y-88199127D01*
X137562805Y-88110589D01*
X137682164Y-88073989D01*
X137686758Y-88073953D01*
X137809670Y-88105812D01*
G37*
G36*
X140164602Y-90152459D02*
G01*
X140286394Y-90182317D01*
X140330687Y-90212299D01*
X140405030Y-90310882D01*
X140415561Y-90342358D01*
X140412454Y-90464702D01*
X140403960Y-90487072D01*
X140316006Y-90578574D01*
X140276953Y-90596981D01*
X140158114Y-90626863D01*
X140112090Y-90631786D01*
X139987869Y-90637997D01*
X139922801Y-90637892D01*
X139799015Y-90633353D01*
X139746946Y-90629954D01*
X139622993Y-90624459D01*
X139395237Y-90624459D01*
X139274712Y-90592726D01*
X139256018Y-90579884D01*
X139177458Y-90485052D01*
X139172365Y-90473639D01*
X139159235Y-90350420D01*
X139160764Y-90341748D01*
X139215761Y-90232541D01*
X139232815Y-90214131D01*
X139343512Y-90157046D01*
X139375697Y-90152459D01*
X139497988Y-90149049D01*
X139553384Y-90152459D01*
X139553384Y-88621057D01*
X139426759Y-88620026D01*
X139387299Y-88619225D01*
X139266504Y-88584684D01*
X139232815Y-88563660D01*
X139155268Y-88465352D01*
X139149162Y-88354221D01*
X139201674Y-88248586D01*
X139298150Y-88175314D01*
X139410502Y-88152110D01*
X139533947Y-88151932D01*
X139657750Y-88151395D01*
X139781911Y-88150500D01*
X139806786Y-88150279D01*
X139931436Y-88149670D01*
X140056562Y-88150136D01*
X140182166Y-88151674D01*
X140207344Y-88152110D01*
X140243370Y-88163712D01*
X140280617Y-88182641D01*
X140372380Y-88266502D01*
X140400296Y-88324912D01*
X140402710Y-88449958D01*
X140377093Y-88505652D01*
X140309316Y-88577093D01*
X140220778Y-88611898D01*
X140121859Y-88621057D01*
X140025383Y-88621057D01*
X140025383Y-90160397D01*
X140081559Y-90158565D01*
X140137735Y-90152459D01*
X140164602Y-90152459D01*
G37*
G36*
X142336531Y-88281559D02*
G01*
X142396117Y-88170260D01*
X142411636Y-88153942D01*
X142518146Y-88090651D01*
X142525819Y-88088607D01*
X142651605Y-88095935D01*
X142750246Y-88172070D01*
X142762124Y-88188747D01*
X142791434Y-88235153D01*
X142804867Y-88285223D01*
X142806374Y-88423497D01*
X142807233Y-88561713D01*
X142807443Y-88699873D01*
X142807004Y-88837975D01*
X142805916Y-88976020D01*
X142804180Y-89114007D01*
X142801795Y-89251938D01*
X142798761Y-89389811D01*
X142795126Y-89527541D01*
X142790937Y-89665348D01*
X142786196Y-89803230D01*
X142780901Y-89941189D01*
X142775052Y-90079225D01*
X142768650Y-90217336D01*
X142761695Y-90355524D01*
X142754187Y-90493789D01*
X142717102Y-90612857D01*
X142698011Y-90633007D01*
X142588016Y-90692580D01*
X142570394Y-90696510D01*
X142448098Y-90689346D01*
X142425069Y-90681245D01*
X142328807Y-90603691D01*
X142316992Y-90582937D01*
X142313328Y-90575000D01*
X142313328Y-90582937D01*
X142234057Y-90454370D01*
X142153473Y-90327413D01*
X142071578Y-90202065D01*
X141988371Y-90078328D01*
X141903852Y-89956200D01*
X141818021Y-89835683D01*
X141783321Y-89787927D01*
X141695743Y-89669008D01*
X141607032Y-89550386D01*
X141517188Y-89432063D01*
X141426211Y-89314039D01*
X141334102Y-89196312D01*
X141240859Y-89078883D01*
X141203244Y-89031995D01*
X141203244Y-89905774D01*
X141203244Y-90031254D01*
X141203244Y-90156810D01*
X141203244Y-90203750D01*
X141201738Y-90330370D01*
X141198970Y-90399145D01*
X141189200Y-90516992D01*
X141172103Y-90590265D01*
X141103145Y-90691823D01*
X141065858Y-90714218D01*
X140943562Y-90733296D01*
X140920533Y-90729483D01*
X140810361Y-90670251D01*
X140792916Y-90651936D01*
X140741754Y-90536568D01*
X140739183Y-90497452D01*
X140739183Y-90369020D01*
X140739183Y-90327704D01*
X140739183Y-90203903D01*
X140739183Y-90073699D01*
X140739183Y-90064532D01*
X140739183Y-89941541D01*
X140739183Y-89811698D01*
X140739183Y-89749459D01*
X140739183Y-89623922D01*
X140739183Y-89500102D01*
X140739183Y-89418510D01*
X140738881Y-89290069D01*
X140737879Y-89159638D01*
X140737351Y-89115038D01*
X140736036Y-88992597D01*
X140735519Y-88877512D01*
X140734580Y-88754400D01*
X140731508Y-88624265D01*
X140731245Y-88616172D01*
X140729566Y-88486113D01*
X140731596Y-88363073D01*
X140731856Y-88354832D01*
X140764829Y-88243091D01*
X140847871Y-88171650D01*
X140955949Y-88142341D01*
X141068300Y-88157606D01*
X141162944Y-88221720D01*
X141245958Y-88312214D01*
X141257588Y-88326133D01*
X141334124Y-88424441D01*
X141344295Y-88438485D01*
X141412683Y-88528855D01*
X141492167Y-88626972D01*
X141572721Y-88725964D01*
X141644103Y-88813398D01*
X141724567Y-88912037D01*
X141801096Y-89007218D01*
X141880732Y-89107922D01*
X141887735Y-89116870D01*
X141964255Y-89218040D01*
X142039333Y-89319210D01*
X142106332Y-89411182D01*
X142178727Y-89512005D01*
X142249823Y-89612971D01*
X142313328Y-89704884D01*
X142317400Y-89573122D01*
X142320913Y-89441617D01*
X142323868Y-89310370D01*
X142326265Y-89179381D01*
X142328104Y-89048649D01*
X142328593Y-89005129D01*
X142330046Y-88874275D01*
X142331198Y-88743207D01*
X142332049Y-88611924D01*
X142332600Y-88480426D01*
X142332851Y-88348714D01*
X142332868Y-88304762D01*
X142336531Y-88281559D01*
G37*
G36*
X144826587Y-88198517D02*
G01*
X144929718Y-88272314D01*
X144948709Y-88296214D01*
X145001700Y-88407189D01*
X145006716Y-88433600D01*
X144983711Y-88553993D01*
X144979239Y-88561217D01*
X144877423Y-88630528D01*
X144849790Y-88637543D01*
X144719445Y-88655632D01*
X144594938Y-88664105D01*
X144515177Y-88664410D01*
X144386115Y-88661488D01*
X144257506Y-88660152D01*
X144242847Y-88660136D01*
X144242936Y-88804782D01*
X144243204Y-88948683D01*
X144243652Y-89091839D01*
X144244278Y-89234249D01*
X144245083Y-89375914D01*
X144246067Y-89516834D01*
X144246510Y-89572993D01*
X144247387Y-89714464D01*
X144247727Y-89858380D01*
X144247530Y-90004741D01*
X144246797Y-90153547D01*
X144245526Y-90304798D01*
X144244124Y-90427558D01*
X144242847Y-90520655D01*
X144207925Y-90640978D01*
X144168963Y-90676971D01*
X144051154Y-90717729D01*
X144008374Y-90717271D01*
X143890358Y-90678348D01*
X143847784Y-90647662D01*
X143781667Y-90540930D01*
X143774511Y-90477913D01*
X143773456Y-90335464D01*
X143772579Y-90193194D01*
X143771881Y-90051102D01*
X143771363Y-89909190D01*
X143771023Y-89767456D01*
X143770862Y-89625901D01*
X143770847Y-89569330D01*
X143770847Y-89427832D01*
X143770847Y-89286125D01*
X143770847Y-89144209D01*
X143770847Y-89002085D01*
X143770847Y-88859752D01*
X143770847Y-88717211D01*
X143770847Y-88660136D01*
X143653000Y-88664410D01*
X143525425Y-88666837D01*
X143471039Y-88666242D01*
X143345769Y-88658895D01*
X143268318Y-88650366D01*
X143148295Y-88623556D01*
X143086357Y-88597854D01*
X143005146Y-88505652D01*
X143002704Y-88382920D01*
X143061129Y-88272510D01*
X143066817Y-88265683D01*
X143169985Y-88195164D01*
X143182833Y-88191189D01*
X143323929Y-88186961D01*
X143462980Y-88184427D01*
X143599985Y-88183588D01*
X143734946Y-88184444D01*
X143811147Y-88185694D01*
X143944622Y-88187835D01*
X144078973Y-88189451D01*
X144214200Y-88190540D01*
X144350304Y-88191103D01*
X144428471Y-88191189D01*
X144556088Y-88191189D01*
X144614096Y-88191189D01*
X144737490Y-88191189D01*
X144803384Y-88191189D01*
X144826587Y-88198517D01*
G37*
G36*
X145267445Y-90304501D02*
G01*
X145247594Y-90180257D01*
X145249738Y-90157344D01*
X145292520Y-90042089D01*
X145299808Y-90032170D01*
X145401994Y-89959652D01*
X145406053Y-89958286D01*
X145528204Y-89962215D01*
X145553210Y-89971720D01*
X145658759Y-90041269D01*
X145678995Y-90062700D01*
X145773716Y-90140919D01*
X145804780Y-90157344D01*
X145919283Y-90205172D01*
X146009944Y-90230617D01*
X146133592Y-90254026D01*
X146156489Y-90256263D01*
X146278565Y-90261565D01*
X146307309Y-90261758D01*
X146408060Y-90231228D01*
X146500872Y-90165282D01*
X146571063Y-90062099D01*
X146575976Y-90044993D01*
X146578985Y-89920832D01*
X146575976Y-89908217D01*
X146522214Y-89798489D01*
X146510642Y-89784263D01*
X146409863Y-89714005D01*
X146392794Y-89708548D01*
X146274184Y-89672033D01*
X146147101Y-89641989D01*
X146121685Y-89637107D01*
X145996785Y-89611490D01*
X145875104Y-89581580D01*
X145859124Y-89577267D01*
X145742435Y-89538332D01*
X145631649Y-89486786D01*
X145617323Y-89478960D01*
X145514167Y-89406644D01*
X145424909Y-89317118D01*
X145406664Y-89295167D01*
X145341014Y-89191917D01*
X145336444Y-89179152D01*
X145304602Y-89061049D01*
X145302250Y-89051535D01*
X145289971Y-88920474D01*
X145307870Y-88796901D01*
X145330949Y-88738293D01*
X145393242Y-88630652D01*
X145467925Y-88532128D01*
X145491538Y-88505652D01*
X145580580Y-88420382D01*
X145686439Y-88344476D01*
X145771807Y-88299267D01*
X145891562Y-88252441D01*
X146015439Y-88220040D01*
X146100314Y-88206454D01*
X146229972Y-88197553D01*
X146360661Y-88202905D01*
X146448360Y-88214392D01*
X146578133Y-88241669D01*
X146702754Y-88280452D01*
X146782972Y-88312700D01*
X146881938Y-88390079D01*
X146901430Y-88432379D01*
X146911105Y-88557035D01*
X146903262Y-88591137D01*
X146837340Y-88698826D01*
X146814113Y-88718754D01*
X146697284Y-88757111D01*
X146659630Y-88753558D01*
X146537496Y-88725826D01*
X146485607Y-88712648D01*
X146363790Y-88684026D01*
X146323185Y-88676011D01*
X146198357Y-88671432D01*
X146189462Y-88672348D01*
X146065993Y-88694154D01*
X146053907Y-88697383D01*
X145936060Y-88735851D01*
X145854849Y-88780425D01*
X145795010Y-88850645D01*
X145762037Y-88947121D01*
X145812718Y-89055198D01*
X145923874Y-89113111D01*
X145936060Y-89116870D01*
X146057445Y-89142093D01*
X146182319Y-89166243D01*
X146199232Y-89169382D01*
X146325375Y-89197145D01*
X146449640Y-89233496D01*
X146466067Y-89238991D01*
X146585386Y-89286280D01*
X146697192Y-89344571D01*
X146711531Y-89353175D01*
X146811333Y-89428630D01*
X146896645Y-89524479D01*
X146906926Y-89538799D01*
X146979367Y-89638718D01*
X147029536Y-89750711D01*
X147034542Y-89766556D01*
X147060446Y-89886197D01*
X147064414Y-90013813D01*
X147063852Y-90021789D01*
X147043854Y-90147117D01*
X147003401Y-90267864D01*
X146943715Y-90378384D01*
X146864794Y-90474249D01*
X146772424Y-90554316D01*
X146734734Y-90580495D01*
X146627916Y-90646326D01*
X146590020Y-90667812D01*
X146470523Y-90717300D01*
X146344671Y-90743947D01*
X146257240Y-90749023D01*
X146135008Y-90742817D01*
X146012632Y-90724202D01*
X145901256Y-90696510D01*
X145781333Y-90655777D01*
X145665883Y-90604943D01*
X145564811Y-90549965D01*
X145461496Y-90482804D01*
X145361132Y-90404766D01*
X145294312Y-90342969D01*
X145267445Y-90304501D01*
G37*
G36*
X148593961Y-88810753D02*
G01*
X148648988Y-88823168D01*
X148757841Y-88880666D01*
X148778436Y-88904378D01*
X148828506Y-88985589D01*
X148846214Y-89059473D01*
X148846214Y-89142515D01*
X148844382Y-89252424D01*
X148843736Y-89378829D01*
X148842550Y-89463084D01*
X148842312Y-89585546D01*
X148844382Y-89670080D01*
X148844382Y-89761060D01*
X148848046Y-89878907D01*
X148857815Y-89996755D01*
X148875523Y-90087735D01*
X149030006Y-90404640D01*
X149040072Y-90529815D01*
X149018405Y-90590265D01*
X148927770Y-90678078D01*
X148900558Y-90689183D01*
X148774054Y-90694013D01*
X148735694Y-90683077D01*
X148629217Y-90616183D01*
X148581210Y-90559734D01*
X148474507Y-90628733D01*
X148370551Y-90673307D01*
X148246066Y-90701321D01*
X148136688Y-90710554D01*
X148006146Y-90708521D01*
X147875257Y-90690174D01*
X147784979Y-90665369D01*
X147667321Y-90614533D01*
X147565384Y-90546363D01*
X147523639Y-90509054D01*
X147441309Y-90407758D01*
X147383907Y-90295906D01*
X147366713Y-90248325D01*
X147338434Y-90123933D01*
X147328805Y-89998139D01*
X147329974Y-89963095D01*
X147807552Y-89963095D01*
X147808182Y-89975383D01*
X147837758Y-90096789D01*
X147854588Y-90124371D01*
X147946100Y-90209261D01*
X147957170Y-90215352D01*
X148076345Y-90249591D01*
X148084787Y-90250157D01*
X148206937Y-90232041D01*
X148210572Y-90230617D01*
X148307048Y-90170778D01*
X148403524Y-90095673D01*
X148384573Y-89967505D01*
X148371228Y-89839456D01*
X148363488Y-89711527D01*
X148362613Y-89685956D01*
X148360490Y-89557370D01*
X148360991Y-89428069D01*
X148364116Y-89298053D01*
X148365055Y-89271964D01*
X148239432Y-89307484D01*
X148123598Y-89368249D01*
X148051814Y-89422784D01*
X147966130Y-89510114D01*
X147895534Y-89616903D01*
X147858251Y-89704884D01*
X147823256Y-89823094D01*
X147819173Y-89840439D01*
X147807552Y-89963095D01*
X147329974Y-89963095D01*
X147332519Y-89886845D01*
X147351638Y-89761022D01*
X147361217Y-89720150D01*
X147396709Y-89600738D01*
X147410066Y-89562002D01*
X147461181Y-89445070D01*
X147496772Y-89380041D01*
X147564127Y-89274948D01*
X147610956Y-89213956D01*
X147692937Y-89123267D01*
X147797860Y-89030160D01*
X147912777Y-88950727D01*
X148037686Y-88884969D01*
X148133025Y-88846371D01*
X148251521Y-88816441D01*
X148279570Y-88811566D01*
X148402175Y-88798894D01*
X148467027Y-88798133D01*
X148593961Y-88810753D01*
G37*
G36*
X150581559Y-88869574D02*
G01*
X150668231Y-88778221D01*
X150697575Y-88763328D01*
X150822237Y-88747315D01*
X150834961Y-88749895D01*
X150944769Y-88809658D01*
X150954640Y-88819504D01*
X151012965Y-88930200D01*
X151018754Y-88962386D01*
X151009030Y-89084942D01*
X150993719Y-89148011D01*
X150956930Y-89269674D01*
X150915508Y-89387338D01*
X150912508Y-89395307D01*
X150866748Y-89512398D01*
X150816755Y-89631676D01*
X150813590Y-89638939D01*
X150763251Y-89753614D01*
X150732379Y-89820900D01*
X150673804Y-89947236D01*
X150612951Y-90072463D01*
X150549818Y-90196579D01*
X150484406Y-90319584D01*
X150446004Y-90389375D01*
X150378038Y-90511016D01*
X150309312Y-90632306D01*
X150239826Y-90753245D01*
X150169581Y-90873834D01*
X150129099Y-90942585D01*
X150074755Y-91046388D01*
X150019457Y-91157719D01*
X150011252Y-91174005D01*
X149952147Y-91283332D01*
X149943475Y-91297958D01*
X149878140Y-91383443D01*
X149771322Y-91451221D01*
X149734647Y-91460380D01*
X149612873Y-91446304D01*
X149601535Y-91440840D01*
X149511631Y-91356418D01*
X149504448Y-91344364D01*
X149474410Y-91225508D01*
X149475750Y-91186217D01*
X149506280Y-91095237D01*
X149564240Y-90986687D01*
X149568562Y-90979221D01*
X149633821Y-90871852D01*
X149638171Y-90865038D01*
X149692515Y-90775889D01*
X149758783Y-90664224D01*
X149822947Y-90552560D01*
X149840893Y-90520655D01*
X149904172Y-90408991D01*
X149967918Y-90297326D01*
X149986217Y-90265422D01*
X149892887Y-90184042D01*
X149804323Y-90099270D01*
X149707021Y-89996083D01*
X149616206Y-89888279D01*
X149543527Y-89792201D01*
X149465664Y-89675381D01*
X149396099Y-89553595D01*
X149334832Y-89426840D01*
X149281863Y-89295119D01*
X149255321Y-89217620D01*
X149216242Y-89109542D01*
X149205251Y-88997191D01*
X149241277Y-88879344D01*
X149316992Y-88793859D01*
X149423237Y-88757222D01*
X149545359Y-88784089D01*
X149624127Y-88859804D01*
X149672976Y-88964218D01*
X149705949Y-89078401D01*
X149738921Y-89182815D01*
X149791073Y-89299713D01*
X149850977Y-89411125D01*
X149918633Y-89517051D01*
X149994041Y-89617491D01*
X150077200Y-89712445D01*
X150168111Y-89801914D01*
X150206646Y-89836165D01*
X150261334Y-89720035D01*
X150313045Y-89603676D01*
X150361779Y-89487088D01*
X150407536Y-89370272D01*
X150450889Y-89252730D01*
X150491800Y-89133967D01*
X150530268Y-89013982D01*
X150566294Y-88892777D01*
X150581559Y-88869574D01*
G37*
G36*
X151162857Y-90316102D02*
G01*
X151142965Y-90194601D01*
X151143318Y-90186653D01*
X151176290Y-90070638D01*
X151259333Y-89989427D01*
X151381621Y-89967209D01*
X151391224Y-89968056D01*
X151468161Y-89991259D01*
X151531664Y-90037665D01*
X151589672Y-90095673D01*
X151650122Y-90149406D01*
X151757634Y-90211824D01*
X151789340Y-90223290D01*
X151908674Y-90252464D01*
X151943824Y-90258094D01*
X152031140Y-90231228D01*
X152075715Y-90165282D01*
X152081210Y-90082240D01*
X152052512Y-90010188D01*
X151948272Y-89941998D01*
X151891922Y-89925314D01*
X151768136Y-89894984D01*
X151716067Y-89878907D01*
X151600968Y-89835096D01*
X151487700Y-89780600D01*
X151386034Y-89709159D01*
X151305739Y-89615736D01*
X151247426Y-89504300D01*
X151219033Y-89386147D01*
X151217685Y-89258117D01*
X151237962Y-89148011D01*
X151285575Y-89030259D01*
X151348482Y-88935519D01*
X151433661Y-88847287D01*
X151534106Y-88776762D01*
X151647270Y-88730054D01*
X151711793Y-88716922D01*
X151833628Y-88707954D01*
X151907187Y-88710816D01*
X152029881Y-88729086D01*
X152102581Y-88748063D01*
X152222632Y-88788359D01*
X152280268Y-88811566D01*
X152382099Y-88882655D01*
X152419487Y-88931856D01*
X152461962Y-89048634D01*
X152464061Y-89088171D01*
X152424890Y-89206909D01*
X152409717Y-89225558D01*
X152298806Y-89280790D01*
X152257065Y-89283565D01*
X152144713Y-89262194D01*
X152040910Y-89221284D01*
X151920136Y-89188912D01*
X151890090Y-89184647D01*
X151767970Y-89191011D01*
X151758199Y-89194417D01*
X151723394Y-89219452D01*
X151694696Y-89271964D01*
X151690422Y-89333635D01*
X151731332Y-89383705D01*
X151845637Y-89435493D01*
X151928558Y-89461252D01*
X152051043Y-89495955D01*
X152133112Y-89522923D01*
X152247802Y-89571142D01*
X152320568Y-89612072D01*
X152413924Y-89692750D01*
X152465893Y-89766556D01*
X152518243Y-89878812D01*
X152548405Y-90004686D01*
X152553210Y-90074302D01*
X152543512Y-90201254D01*
X152511443Y-90321152D01*
X152489096Y-90374110D01*
X152425732Y-90480473D01*
X152341811Y-90573332D01*
X152296144Y-90611636D01*
X152185401Y-90678806D01*
X152060550Y-90719573D01*
X151998168Y-90729483D01*
X151872043Y-90731470D01*
X151762473Y-90716050D01*
X151641275Y-90680661D01*
X151537770Y-90634839D01*
X151427246Y-90569293D01*
X151336880Y-90501727D01*
X151244816Y-90417265D01*
X151174459Y-90339305D01*
X151162857Y-90316102D01*
G37*
D11*
X151574200Y-95316667D02*
X151612295Y-95202381D01*
X151612295Y-95202381D02*
X151612295Y-95011905D01*
X151612295Y-95011905D02*
X151574200Y-94935714D01*
X151574200Y-94935714D02*
X151536104Y-94897619D01*
X151536104Y-94897619D02*
X151459914Y-94859524D01*
X151459914Y-94859524D02*
X151383723Y-94859524D01*
X151383723Y-94859524D02*
X151307533Y-94897619D01*
X151307533Y-94897619D02*
X151269438Y-94935714D01*
X151269438Y-94935714D02*
X151231342Y-95011905D01*
X151231342Y-95011905D02*
X151193247Y-95164286D01*
X151193247Y-95164286D02*
X151155152Y-95240476D01*
X151155152Y-95240476D02*
X151117057Y-95278571D01*
X151117057Y-95278571D02*
X151040866Y-95316667D01*
X151040866Y-95316667D02*
X150964676Y-95316667D01*
X150964676Y-95316667D02*
X150888485Y-95278571D01*
X150888485Y-95278571D02*
X150850390Y-95240476D01*
X150850390Y-95240476D02*
X150812295Y-95164286D01*
X150812295Y-95164286D02*
X150812295Y-94973809D01*
X150812295Y-94973809D02*
X150850390Y-94859524D01*
X150812295Y-94592857D02*
X151612295Y-94402381D01*
X151612295Y-94402381D02*
X151040866Y-94250000D01*
X151040866Y-94250000D02*
X151612295Y-94097619D01*
X151612295Y-94097619D02*
X150812295Y-93907143D01*
X151078961Y-93259523D02*
X151612295Y-93259523D01*
X150774200Y-93449999D02*
X151345628Y-93640476D01*
X151345628Y-93640476D02*
X151345628Y-93145237D01*
X136074200Y-94816667D02*
X136112295Y-94702381D01*
X136112295Y-94702381D02*
X136112295Y-94511905D01*
X136112295Y-94511905D02*
X136074200Y-94435714D01*
X136074200Y-94435714D02*
X136036104Y-94397619D01*
X136036104Y-94397619D02*
X135959914Y-94359524D01*
X135959914Y-94359524D02*
X135883723Y-94359524D01*
X135883723Y-94359524D02*
X135807533Y-94397619D01*
X135807533Y-94397619D02*
X135769438Y-94435714D01*
X135769438Y-94435714D02*
X135731342Y-94511905D01*
X135731342Y-94511905D02*
X135693247Y-94664286D01*
X135693247Y-94664286D02*
X135655152Y-94740476D01*
X135655152Y-94740476D02*
X135617057Y-94778571D01*
X135617057Y-94778571D02*
X135540866Y-94816667D01*
X135540866Y-94816667D02*
X135464676Y-94816667D01*
X135464676Y-94816667D02*
X135388485Y-94778571D01*
X135388485Y-94778571D02*
X135350390Y-94740476D01*
X135350390Y-94740476D02*
X135312295Y-94664286D01*
X135312295Y-94664286D02*
X135312295Y-94473809D01*
X135312295Y-94473809D02*
X135350390Y-94359524D01*
X135312295Y-94092857D02*
X136112295Y-93902381D01*
X136112295Y-93902381D02*
X135540866Y-93750000D01*
X135540866Y-93750000D02*
X136112295Y-93597619D01*
X136112295Y-93597619D02*
X135312295Y-93407143D01*
X136112295Y-92683333D02*
X136112295Y-93140476D01*
X136112295Y-92911904D02*
X135312295Y-92911904D01*
X135312295Y-92911904D02*
X135426580Y-92988095D01*
X135426580Y-92988095D02*
X135502771Y-93064285D01*
X135502771Y-93064285D02*
X135540866Y-93140476D01*
X146424200Y-96431667D02*
X146462295Y-96317381D01*
X146462295Y-96317381D02*
X146462295Y-96126905D01*
X146462295Y-96126905D02*
X146424200Y-96050714D01*
X146424200Y-96050714D02*
X146386104Y-96012619D01*
X146386104Y-96012619D02*
X146309914Y-95974524D01*
X146309914Y-95974524D02*
X146233723Y-95974524D01*
X146233723Y-95974524D02*
X146157533Y-96012619D01*
X146157533Y-96012619D02*
X146119438Y-96050714D01*
X146119438Y-96050714D02*
X146081342Y-96126905D01*
X146081342Y-96126905D02*
X146043247Y-96279286D01*
X146043247Y-96279286D02*
X146005152Y-96355476D01*
X146005152Y-96355476D02*
X145967057Y-96393571D01*
X145967057Y-96393571D02*
X145890866Y-96431667D01*
X145890866Y-96431667D02*
X145814676Y-96431667D01*
X145814676Y-96431667D02*
X145738485Y-96393571D01*
X145738485Y-96393571D02*
X145700390Y-96355476D01*
X145700390Y-96355476D02*
X145662295Y-96279286D01*
X145662295Y-96279286D02*
X145662295Y-96088809D01*
X145662295Y-96088809D02*
X145700390Y-95974524D01*
X145662295Y-95707857D02*
X146462295Y-95517381D01*
X146462295Y-95517381D02*
X145890866Y-95365000D01*
X145890866Y-95365000D02*
X146462295Y-95212619D01*
X146462295Y-95212619D02*
X145662295Y-95022143D01*
X145662295Y-94793571D02*
X145662295Y-94298333D01*
X145662295Y-94298333D02*
X145967057Y-94564999D01*
X145967057Y-94564999D02*
X145967057Y-94450714D01*
X145967057Y-94450714D02*
X146005152Y-94374523D01*
X146005152Y-94374523D02*
X146043247Y-94336428D01*
X146043247Y-94336428D02*
X146119438Y-94298333D01*
X146119438Y-94298333D02*
X146309914Y-94298333D01*
X146309914Y-94298333D02*
X146386104Y-94336428D01*
X146386104Y-94336428D02*
X146424200Y-94374523D01*
X146424200Y-94374523D02*
X146462295Y-94450714D01*
X146462295Y-94450714D02*
X146462295Y-94679285D01*
X146462295Y-94679285D02*
X146424200Y-94755476D01*
X146424200Y-94755476D02*
X146386104Y-94793571D01*
X141124200Y-96431667D02*
X141162295Y-96317381D01*
X141162295Y-96317381D02*
X141162295Y-96126905D01*
X141162295Y-96126905D02*
X141124200Y-96050714D01*
X141124200Y-96050714D02*
X141086104Y-96012619D01*
X141086104Y-96012619D02*
X141009914Y-95974524D01*
X141009914Y-95974524D02*
X140933723Y-95974524D01*
X140933723Y-95974524D02*
X140857533Y-96012619D01*
X140857533Y-96012619D02*
X140819438Y-96050714D01*
X140819438Y-96050714D02*
X140781342Y-96126905D01*
X140781342Y-96126905D02*
X140743247Y-96279286D01*
X140743247Y-96279286D02*
X140705152Y-96355476D01*
X140705152Y-96355476D02*
X140667057Y-96393571D01*
X140667057Y-96393571D02*
X140590866Y-96431667D01*
X140590866Y-96431667D02*
X140514676Y-96431667D01*
X140514676Y-96431667D02*
X140438485Y-96393571D01*
X140438485Y-96393571D02*
X140400390Y-96355476D01*
X140400390Y-96355476D02*
X140362295Y-96279286D01*
X140362295Y-96279286D02*
X140362295Y-96088809D01*
X140362295Y-96088809D02*
X140400390Y-95974524D01*
X140362295Y-95707857D02*
X141162295Y-95517381D01*
X141162295Y-95517381D02*
X140590866Y-95365000D01*
X140590866Y-95365000D02*
X141162295Y-95212619D01*
X141162295Y-95212619D02*
X140362295Y-95022143D01*
X140438485Y-94755476D02*
X140400390Y-94717380D01*
X140400390Y-94717380D02*
X140362295Y-94641190D01*
X140362295Y-94641190D02*
X140362295Y-94450714D01*
X140362295Y-94450714D02*
X140400390Y-94374523D01*
X140400390Y-94374523D02*
X140438485Y-94336428D01*
X140438485Y-94336428D02*
X140514676Y-94298333D01*
X140514676Y-94298333D02*
X140590866Y-94298333D01*
X140590866Y-94298333D02*
X140705152Y-94336428D01*
X140705152Y-94336428D02*
X141162295Y-94793571D01*
X141162295Y-94793571D02*
X141162295Y-94298333D01*
X152704819Y-85988094D02*
X151704819Y-85988094D01*
X151704819Y-85988094D02*
X151704819Y-85749999D01*
X151704819Y-85749999D02*
X151752438Y-85607142D01*
X151752438Y-85607142D02*
X151847676Y-85511904D01*
X151847676Y-85511904D02*
X151942914Y-85464285D01*
X151942914Y-85464285D02*
X152133390Y-85416666D01*
X152133390Y-85416666D02*
X152276247Y-85416666D01*
X152276247Y-85416666D02*
X152466723Y-85464285D01*
X152466723Y-85464285D02*
X152561961Y-85511904D01*
X152561961Y-85511904D02*
X152657200Y-85607142D01*
X152657200Y-85607142D02*
X152704819Y-85749999D01*
X152704819Y-85749999D02*
X152704819Y-85988094D01*
X152038152Y-84559523D02*
X152704819Y-84559523D01*
X151657200Y-84797618D02*
X152371485Y-85035713D01*
X152371485Y-85035713D02*
X152371485Y-84416666D01*
X139204819Y-86238094D02*
X138204819Y-86238094D01*
X138204819Y-86238094D02*
X138204819Y-85999999D01*
X138204819Y-85999999D02*
X138252438Y-85857142D01*
X138252438Y-85857142D02*
X138347676Y-85761904D01*
X138347676Y-85761904D02*
X138442914Y-85714285D01*
X138442914Y-85714285D02*
X138633390Y-85666666D01*
X138633390Y-85666666D02*
X138776247Y-85666666D01*
X138776247Y-85666666D02*
X138966723Y-85714285D01*
X138966723Y-85714285D02*
X139061961Y-85761904D01*
X139061961Y-85761904D02*
X139157200Y-85857142D01*
X139157200Y-85857142D02*
X139204819Y-85999999D01*
X139204819Y-85999999D02*
X139204819Y-86238094D01*
X139204819Y-84714285D02*
X139204819Y-85285713D01*
X139204819Y-84999999D02*
X138204819Y-84999999D01*
X138204819Y-84999999D02*
X138347676Y-85095237D01*
X138347676Y-85095237D02*
X138442914Y-85190475D01*
X138442914Y-85190475D02*
X138490533Y-85285713D01*
X143774819Y-85828094D02*
X142774819Y-85828094D01*
X142774819Y-85828094D02*
X142774819Y-85589999D01*
X142774819Y-85589999D02*
X142822438Y-85447142D01*
X142822438Y-85447142D02*
X142917676Y-85351904D01*
X142917676Y-85351904D02*
X143012914Y-85304285D01*
X143012914Y-85304285D02*
X143203390Y-85256666D01*
X143203390Y-85256666D02*
X143346247Y-85256666D01*
X143346247Y-85256666D02*
X143536723Y-85304285D01*
X143536723Y-85304285D02*
X143631961Y-85351904D01*
X143631961Y-85351904D02*
X143727200Y-85447142D01*
X143727200Y-85447142D02*
X143774819Y-85589999D01*
X143774819Y-85589999D02*
X143774819Y-85828094D01*
X142870057Y-84875713D02*
X142822438Y-84828094D01*
X142822438Y-84828094D02*
X142774819Y-84732856D01*
X142774819Y-84732856D02*
X142774819Y-84494761D01*
X142774819Y-84494761D02*
X142822438Y-84399523D01*
X142822438Y-84399523D02*
X142870057Y-84351904D01*
X142870057Y-84351904D02*
X142965295Y-84304285D01*
X142965295Y-84304285D02*
X143060533Y-84304285D01*
X143060533Y-84304285D02*
X143203390Y-84351904D01*
X143203390Y-84351904D02*
X143774819Y-84923332D01*
X143774819Y-84923332D02*
X143774819Y-84304285D01*
X148524819Y-85828094D02*
X147524819Y-85828094D01*
X147524819Y-85828094D02*
X147524819Y-85589999D01*
X147524819Y-85589999D02*
X147572438Y-85447142D01*
X147572438Y-85447142D02*
X147667676Y-85351904D01*
X147667676Y-85351904D02*
X147762914Y-85304285D01*
X147762914Y-85304285D02*
X147953390Y-85256666D01*
X147953390Y-85256666D02*
X148096247Y-85256666D01*
X148096247Y-85256666D02*
X148286723Y-85304285D01*
X148286723Y-85304285D02*
X148381961Y-85351904D01*
X148381961Y-85351904D02*
X148477200Y-85447142D01*
X148477200Y-85447142D02*
X148524819Y-85589999D01*
X148524819Y-85589999D02*
X148524819Y-85828094D01*
X147524819Y-84923332D02*
X147524819Y-84304285D01*
X147524819Y-84304285D02*
X147905771Y-84637618D01*
X147905771Y-84637618D02*
X147905771Y-84494761D01*
X147905771Y-84494761D02*
X147953390Y-84399523D01*
X147953390Y-84399523D02*
X148001009Y-84351904D01*
X148001009Y-84351904D02*
X148096247Y-84304285D01*
X148096247Y-84304285D02*
X148334342Y-84304285D01*
X148334342Y-84304285D02*
X148429580Y-84351904D01*
X148429580Y-84351904D02*
X148477200Y-84399523D01*
X148477200Y-84399523D02*
X148524819Y-84494761D01*
X148524819Y-84494761D02*
X148524819Y-84780475D01*
X148524819Y-84780475D02*
X148477200Y-84875713D01*
X148477200Y-84875713D02*
X148429580Y-84923332D01*
D12*
%TO.C,SW4*%
X149800000Y-96000000D02*
X149800000Y-92468000D01*
X152800000Y-96000000D02*
X149800000Y-96000000D01*
X152800000Y-96000000D02*
X152800000Y-92468000D01*
X152800000Y-92468000D02*
X149800000Y-92468000D01*
%TO.C,SW1*%
X134390000Y-95480000D02*
X134390000Y-91948000D01*
X137390000Y-95480000D02*
X134390000Y-95480000D01*
X137390000Y-95480000D02*
X137390000Y-91948000D01*
X137390000Y-91948000D02*
X134390000Y-91948000D01*
%TO.C,SW3*%
X144600000Y-96865000D02*
X144600000Y-93333000D01*
X147600000Y-96865000D02*
X144600000Y-96865000D01*
X147600000Y-96865000D02*
X147600000Y-93333000D01*
X147600000Y-93333000D02*
X144600000Y-93333000D01*
%TO.C,SW2*%
X139300000Y-96865000D02*
X139300000Y-93333000D01*
X142300000Y-96865000D02*
X139300000Y-96865000D01*
X142300000Y-96865000D02*
X142300000Y-93333000D01*
X142300000Y-93333000D02*
X139300000Y-93333000D01*
%TO.C,D4*%
X149115000Y-83887500D02*
X149115000Y-87947500D01*
X149115000Y-87947500D02*
X151385000Y-87947500D01*
X151385000Y-87947500D02*
X151385000Y-83887500D01*
%TO.C,D1*%
X135615000Y-83912500D02*
X135615000Y-87972500D01*
X135615000Y-87972500D02*
X137885000Y-87972500D01*
X137885000Y-87972500D02*
X137885000Y-83912500D01*
%TO.C,D2*%
X140365000Y-82630000D02*
X140365000Y-86690000D01*
X142635000Y-82630000D02*
X140365000Y-82630000D01*
X142635000Y-86690000D02*
X142635000Y-82630000D01*
%TO.C,D3*%
X145115000Y-82630000D02*
X145115000Y-86690000D01*
X147385000Y-82630000D02*
X145115000Y-82630000D01*
X147385000Y-86690000D02*
X147385000Y-82630000D01*
%TD*%
M02*
