%TF.GenerationSoftware,KiCad,Pcbnew,8.0.3*%
%TF.CreationDate,2024-07-29T19:47:32-06:00*%
%TF.ProjectId,SaintCon Says Badge,5361696e-7443-46f6-9e20-536179732042,rev?*%
%TF.SameCoordinates,Original*%
%TF.FileFunction,Copper,L1,Top*%
%TF.FilePolarity,Positive*%
%FSLAX46Y46*%
G04 Gerber Fmt 4.6, Leading zero omitted, Abs format (unit mm)*
G04 Created by KiCad (PCBNEW 8.0.3) date 2024-07-29 19:47:32*
%MOMM*%
%LPD*%
G01*
G04 APERTURE LIST*
G04 Aperture macros list*
%AMRoundRect*
0 Rectangle with rounded corners*
0 $1 Rounding radius*
0 $2 $3 $4 $5 $6 $7 $8 $9 X,Y pos of 4 corners*
0 Add a 4 corners polygon primitive as box body*
4,1,4,$2,$3,$4,$5,$6,$7,$8,$9,$2,$3,0*
0 Add four circle primitives for the rounded corners*
1,1,$1+$1,$2,$3*
1,1,$1+$1,$4,$5*
1,1,$1+$1,$6,$7*
1,1,$1+$1,$8,$9*
0 Add four rect primitives between the rounded corners*
20,1,$1+$1,$2,$3,$4,$5,0*
20,1,$1+$1,$4,$5,$6,$7,0*
20,1,$1+$1,$6,$7,$8,$9,0*
20,1,$1+$1,$8,$9,$2,$3,0*%
G04 Aperture macros list end*
%TA.AperFunction,SMDPad,CuDef*%
%ADD10R,0.674000X0.836000*%
%TD*%
%TA.AperFunction,SMDPad,CuDef*%
%ADD11R,0.588000X0.858000*%
%TD*%
%TA.AperFunction,SMDPad,CuDef*%
%ADD12R,0.674000X0.858000*%
%TD*%
%TA.AperFunction,SMDPad,CuDef*%
%ADD13RoundRect,0.250001X0.624999X-0.462499X0.624999X0.462499X-0.624999X0.462499X-0.624999X-0.462499X0*%
%TD*%
%TA.AperFunction,SMDPad,CuDef*%
%ADD14RoundRect,0.250001X-0.624999X0.462499X-0.624999X-0.462499X0.624999X-0.462499X0.624999X0.462499X0*%
%TD*%
%TA.AperFunction,ComponentPad*%
%ADD15C,1.750000*%
%TD*%
%TA.AperFunction,ViaPad*%
%ADD16C,0.600000*%
%TD*%
%TA.AperFunction,Conductor*%
%ADD17C,0.200000*%
%TD*%
G04 APERTURE END LIST*
D10*
%TO.P,SW4,1,1*%
%TO.N,Net-(MB1-SCK)*%
X150113000Y-96368000D03*
D11*
X150030000Y-92135000D03*
D10*
%TO.P,SW4,2,2*%
%TO.N,Net-(U1-GND)*%
X152487000Y-96368000D03*
D12*
X152487000Y-92135000D03*
%TD*%
D10*
%TO.P,SW1,1,1*%
%TO.N,Net-(U1-PA1)*%
X134703000Y-95848000D03*
D11*
X134620000Y-91615000D03*
D10*
%TO.P,SW1,2,2*%
%TO.N,Net-(U1-GND)*%
X137077000Y-95848000D03*
D12*
X137077000Y-91615000D03*
%TD*%
D10*
%TO.P,SW3,1,1*%
%TO.N,Net-(U1-PA3)*%
X144913000Y-97233000D03*
D11*
X144830000Y-93000000D03*
D10*
%TO.P,SW3,2,2*%
%TO.N,Net-(U1-GND)*%
X147287000Y-97233000D03*
D12*
X147287000Y-93000000D03*
%TD*%
D10*
%TO.P,SW2,1,1*%
%TO.N,Net-(U1-PA2)*%
X139613000Y-97233000D03*
D11*
X139530000Y-93000000D03*
D10*
%TO.P,SW2,2,2*%
%TO.N,Net-(U1-GND)*%
X141987000Y-97233000D03*
D12*
X141987000Y-93000000D03*
%TD*%
D13*
%TO.P,D4,1,K*%
%TO.N,Net-(D4-K)*%
X150250000Y-86975000D03*
%TO.P,D4,2,A*%
%TO.N,Net-(D4-A)*%
X150250000Y-84000000D03*
%TD*%
%TO.P,D1,1,K*%
%TO.N,Net-(D1-K)*%
X136750000Y-87000000D03*
%TO.P,D1,2,A*%
%TO.N,Net-(D1-A)*%
X136750000Y-84025000D03*
%TD*%
D14*
%TO.P,D2,1,K*%
%TO.N,Net-(D2-K)*%
X141500000Y-83602500D03*
%TO.P,D2,2,A*%
%TO.N,Net-(D2-A)*%
X141500000Y-86577500D03*
%TD*%
%TO.P,D3,1,K*%
%TO.N,Net-(D3-K)*%
X146250000Y-83602500D03*
%TO.P,D3,2,A*%
%TO.N,Net-(D3-A)*%
X146250000Y-86577500D03*
%TD*%
D15*
%TO.P,MB1,16,GND*%
%TO.N,unconnected-(MB1-GND-Pad16)*%
X152315000Y-99065000D03*
%TO.P,MB1,15,3V3+*%
%TO.N,unconnected-(MB1-3V3+-Pad15)*%
X149775000Y-99065000D03*
%TO.P,MB1,14,SDA*%
%TO.N,unconnected-(MB1-SDA-Pad14)*%
X147235000Y-99065000D03*
%TO.P,MB1,13,SCL*%
%TO.N,unconnected-(MB1-SCL-Pad13)*%
X144695000Y-99065000D03*
%TO.P,MB1,12,NC*%
%TO.N,unconnected-(MB1-NC-Pad12)*%
X142155000Y-99065000D03*
%TO.P,MB1,11,NC*%
%TO.N,unconnected-(MB1-NC-Pad11)*%
X139615000Y-99065000D03*
%TO.P,MB1,10,NC*%
%TO.N,unconnected-(MB1-NC-Pad10)*%
X137075000Y-99065000D03*
%TO.P,MB1,9,CLK*%
%TO.N,unconnected-(MB1-CLK-Pad9)*%
X134535000Y-99065000D03*
%TO.P,MB1,8,GND*%
%TO.N,unconnected-(MB1-GND-Pad8)*%
X152315000Y-81285000D03*
%TO.P,MB1,7,+3V3*%
%TO.N,unconnected-(MB1-+3V3-Pad7)*%
X149775000Y-81285000D03*
%TO.P,MB1,6,CS*%
%TO.N,Net-(MB1-CS)*%
X147235000Y-81285000D03*
%TO.P,MB1,5,MOSI*%
%TO.N,Net-(MB1-MOSI)*%
X144695000Y-81285000D03*
%TO.P,MB1,4,SCK*%
%TO.N,Net-(MB1-SCK)*%
X142155000Y-81285000D03*
%TO.P,MB1,3,MISO*%
%TO.N,Net-(MB1-MISO)*%
X139615000Y-81285000D03*
%TO.P,MB1,2,GND*%
%TO.N,Net-(U1-GND)*%
X137075000Y-81285000D03*
%TO.P,MB1,1,+VBATT*%
%TO.N,Net-(MB1-+VBATT)*%
X134535000Y-81285000D03*
%TD*%
D16*
%TO.N,Net-(MB1-MOSI)*%
X143750000Y-87250000D03*
X144250000Y-85250000D03*
%TO.N,Net-(MB1-MISO)*%
X140250000Y-92000000D03*
%TO.N,Net-(MB1-SCK)*%
X143500000Y-92750000D03*
%TO.N,Net-(D1-K)*%
X136750000Y-87000000D03*
%TO.N,Net-(D1-A)*%
X135000000Y-89750000D03*
%TO.N,Net-(D2-A)*%
X140500000Y-90250000D03*
%TO.N,Net-(D2-K)*%
X140970000Y-83602500D03*
%TO.N,Net-(D3-A)*%
X143040000Y-90250000D03*
%TO.N,Net-(D3-K)*%
X146250000Y-83540000D03*
%TO.N,Net-(D4-K)*%
X150250000Y-87100000D03*
%TO.N,Net-(D4-A)*%
X144310000Y-90250000D03*
%TO.N,Net-(U1-PA2)*%
X141770000Y-95200000D03*
%TO.N,Net-(U1-PA3)*%
X143040000Y-95200000D03*
%TO.N,Net-(U1-PA1)*%
X136750000Y-97000000D03*
%TO.N,Net-(U1-GND)*%
X137000000Y-93915000D03*
%TO.N,Net-(MB1-SCK)*%
X144310000Y-95200000D03*
%TD*%
D17*
%TO.N,Net-(U1-GND)*%
X137000000Y-93915000D02*
X137077000Y-93838000D01*
X137077000Y-93838000D02*
X137077000Y-91615000D01*
%TO.N,Net-(MB1-SCK)*%
X150030000Y-92135000D02*
X146115000Y-92135000D01*
X146115000Y-92135000D02*
X146000000Y-92250000D01*
X146000000Y-93750000D02*
X145000000Y-94750000D01*
X146000000Y-92250000D02*
X146000000Y-93750000D01*
X144338529Y-94750000D02*
X144310000Y-94778529D01*
X145000000Y-94750000D02*
X144338529Y-94750000D01*
X144310000Y-94778529D02*
X144310000Y-95200000D01*
%TO.N,Net-(U1-GND)*%
X141987000Y-97233000D02*
X142370000Y-96850000D01*
X142370000Y-96850000D02*
X142370000Y-93383000D01*
X142370000Y-93383000D02*
X141987000Y-93000000D01*
%TO.N,Net-(U1-PA1)*%
X134620000Y-91615000D02*
X134620000Y-95765000D01*
X134620000Y-95765000D02*
X134703000Y-95848000D01*
%TO.N,Net-(D1-A)*%
X135000000Y-89750000D02*
X134250000Y-89000000D01*
X134250000Y-89000000D02*
X134250000Y-85460000D01*
X134250000Y-85460000D02*
X136107500Y-83602500D01*
X136107500Y-83602500D02*
X136982499Y-83602500D01*
%TO.N,Net-(D4-A)*%
X144310000Y-90250000D02*
X144500000Y-90250000D01*
X144500000Y-90250000D02*
X151130000Y-83620000D01*
X151130000Y-83620000D02*
X151130000Y-83602500D01*
%TO.N,Net-(U1-GND)*%
X147287000Y-93000000D02*
X151622000Y-93000000D01*
X151622000Y-93000000D02*
X152487000Y-92135000D01*
X152487000Y-92135000D02*
X152487000Y-96368000D01*
X141900000Y-97320000D02*
X142970000Y-96250000D01*
X146304000Y-96250000D02*
X147844000Y-97790000D01*
X142970000Y-96250000D02*
X146304000Y-96250000D01*
X147844000Y-97790000D02*
X151065000Y-97790000D01*
X151065000Y-97790000D02*
X152487000Y-96368000D01*
%TO.N,Net-(MB1-SCK)*%
X144310000Y-95200000D02*
X148945000Y-95200000D01*
X148945000Y-95200000D02*
X150113000Y-96368000D01*
X150113000Y-96368000D02*
X150200000Y-96281000D01*
%TO.N,Net-(MB1-MISO)*%
X140250000Y-92000000D02*
X140250000Y-91400000D01*
X140250000Y-91400000D02*
X139615000Y-90765000D01*
X139615000Y-90765000D02*
X139615000Y-81285000D01*
%TO.N,Net-(MB1-MOSI)*%
X144250000Y-86750000D02*
X143750000Y-87250000D01*
X144250000Y-85250000D02*
X144250000Y-86750000D01*
%TO.N,Net-(MB1-SCK)*%
X142155000Y-81285000D02*
X143029999Y-82159999D01*
X143029999Y-82159999D02*
X143029999Y-88470001D01*
X143029999Y-88470001D02*
X142440000Y-89060000D01*
X142440000Y-89060000D02*
X142440000Y-91690000D01*
X142440000Y-91690000D02*
X143500000Y-92750000D01*
%TO.N,Net-(U1-PA2)*%
X141770000Y-95200000D02*
X140450000Y-95200000D01*
X140450000Y-95200000D02*
X139530000Y-94280000D01*
X139530000Y-94280000D02*
X139530000Y-93000000D01*
%TO.N,Net-(U1-GND)*%
X137000000Y-93915000D02*
X138025000Y-93915000D01*
X141343000Y-97233000D02*
X141987000Y-97233000D01*
X138025000Y-93915000D02*
X141343000Y-97233000D01*
%TO.N,Net-(U1-PA3)*%
X143040000Y-95200000D02*
X144830000Y-93410000D01*
X144830000Y-93410000D02*
X144830000Y-93000000D01*
%TO.N,Net-(D1-K)*%
X136327500Y-86577500D02*
X136750000Y-87000000D01*
X136107500Y-86577500D02*
X136327500Y-86577500D01*
%TO.N,Net-(D2-A)*%
X140970000Y-88470000D02*
X140970000Y-86577500D01*
X140970000Y-86577500D02*
X141597800Y-87205300D01*
X140500000Y-90250000D02*
X140500000Y-88940000D01*
X140500000Y-88940000D02*
X140970000Y-88470000D01*
%TO.N,Net-(D3-A)*%
X143040000Y-90250000D02*
X143040000Y-89210000D01*
X143040000Y-89210000D02*
X145672500Y-86577500D01*
%TO.N,Net-(D4-K)*%
X150772500Y-86577500D02*
X150250000Y-87100000D01*
%TO.N,Net-(U1-PA1)*%
X136010000Y-97000000D02*
X134790000Y-95780000D01*
X136750000Y-97000000D02*
X136010000Y-97000000D01*
%TO.N,Net-(U1-GND)*%
X137000000Y-93915000D02*
X136990000Y-93925000D01*
X138430000Y-82640000D02*
X137075000Y-81285000D01*
X138430000Y-92485000D02*
X138430000Y-82640000D01*
X137000000Y-93915000D02*
X138430000Y-92485000D01*
X136990000Y-93925000D02*
X136990000Y-95780000D01*
%TD*%
M02*
