%TF.GenerationSoftware,KiCad,Pcbnew,8.0.3*%
%TF.CreationDate,2024-07-29T19:47:32-06:00*%
%TF.ProjectId,SaintCon Says Badge,5361696e-7443-46f6-9e20-536179732042,rev?*%
%TF.SameCoordinates,Original*%
%TF.FileFunction,Copper,L2,Bot*%
%TF.FilePolarity,Positive*%
%FSLAX46Y46*%
G04 Gerber Fmt 4.6, Leading zero omitted, Abs format (unit mm)*
G04 Created by KiCad (PCBNEW 8.0.3) date 2024-07-29 19:47:32*
%MOMM*%
%LPD*%
G01*
G04 APERTURE LIST*
G04 Aperture macros list*
%AMRoundRect*
0 Rectangle with rounded corners*
0 $1 Rounding radius*
0 $2 $3 $4 $5 $6 $7 $8 $9 X,Y pos of 4 corners*
0 Add a 4 corners polygon primitive as box body*
4,1,4,$2,$3,$4,$5,$6,$7,$8,$9,$2,$3,0*
0 Add four circle primitives for the rounded corners*
1,1,$1+$1,$2,$3*
1,1,$1+$1,$4,$5*
1,1,$1+$1,$6,$7*
1,1,$1+$1,$8,$9*
0 Add four rect primitives between the rounded corners*
20,1,$1+$1,$2,$3,$4,$5,0*
20,1,$1+$1,$4,$5,$6,$7,0*
20,1,$1+$1,$6,$7,$8,$9,0*
20,1,$1+$1,$8,$9,$2,$3,0*%
G04 Aperture macros list end*
%TA.AperFunction,ComponentPad*%
%ADD10C,1.750000*%
%TD*%
%TA.AperFunction,SMDPad,CuDef*%
%ADD11RoundRect,0.150000X-0.150000X0.825000X-0.150000X-0.825000X0.150000X-0.825000X0.150000X0.825000X0*%
%TD*%
%TA.AperFunction,SMDPad,CuDef*%
%ADD12RoundRect,0.250000X-0.625000X0.400000X-0.625000X-0.400000X0.625000X-0.400000X0.625000X0.400000X0*%
%TD*%
%TA.AperFunction,SMDPad,CuDef*%
%ADD13RoundRect,0.250000X0.625000X-0.400000X0.625000X0.400000X-0.625000X0.400000X-0.625000X-0.400000X0*%
%TD*%
%TA.AperFunction,ViaPad*%
%ADD14C,0.600000*%
%TD*%
%TA.AperFunction,Conductor*%
%ADD15C,0.200000*%
%TD*%
G04 APERTURE END LIST*
D10*
%TO.P,MB1,16,GND*%
%TO.N,unconnected-(MB1-GND-Pad16)*%
X152315000Y-99065000D03*
%TO.P,MB1,15,3V3+*%
%TO.N,unconnected-(MB1-3V3+-Pad15)*%
X149775000Y-99065000D03*
%TO.P,MB1,14,SDA*%
%TO.N,unconnected-(MB1-SDA-Pad14)*%
X147235000Y-99065000D03*
%TO.P,MB1,13,SCL*%
%TO.N,unconnected-(MB1-SCL-Pad13)*%
X144695000Y-99065000D03*
%TO.P,MB1,12,NC*%
%TO.N,unconnected-(MB1-NC-Pad12)*%
X142155000Y-99065000D03*
%TO.P,MB1,11,NC*%
%TO.N,unconnected-(MB1-NC-Pad11)*%
X139615000Y-99065000D03*
%TO.P,MB1,10,NC*%
%TO.N,unconnected-(MB1-NC-Pad10)*%
X137075000Y-99065000D03*
%TO.P,MB1,9,CLK*%
%TO.N,unconnected-(MB1-CLK-Pad9)*%
X134535000Y-99065000D03*
%TO.P,MB1,8,GND*%
%TO.N,unconnected-(MB1-GND-Pad8)*%
X152315000Y-81285000D03*
%TO.P,MB1,7,+3V3*%
%TO.N,unconnected-(MB1-+3V3-Pad7)*%
X149775000Y-81285000D03*
%TO.P,MB1,6,CS*%
%TO.N,Net-(MB1-CS)*%
X147235000Y-81285000D03*
%TO.P,MB1,5,MOSI*%
%TO.N,Net-(MB1-MOSI)*%
X144695000Y-81285000D03*
%TO.P,MB1,4,SCK*%
%TO.N,Net-(MB1-SCK)*%
X142155000Y-81285000D03*
%TO.P,MB1,3,MISO*%
%TO.N,Net-(MB1-MISO)*%
X139615000Y-81285000D03*
%TO.P,MB1,2,GND*%
%TO.N,Net-(U1-GND)*%
X137075000Y-81285000D03*
%TO.P,MB1,1,+VBATT*%
%TO.N,Net-(MB1-+VBATT)*%
X134535000Y-81285000D03*
%TD*%
D11*
%TO.P,U1,1,VCC*%
%TO.N,Net-(MB1-+VBATT)*%
X137960000Y-90250000D03*
%TO.P,U1,2,XTAL1/PB0*%
%TO.N,Net-(D1-A)*%
X139230000Y-90250000D03*
%TO.P,U1,3,XTAL2/PB1*%
%TO.N,Net-(D2-A)*%
X140500000Y-90250000D03*
%TO.P,U1,4,~{RESET}/PB3*%
%TO.N,Net-(MB1-CS)*%
X141770000Y-90250000D03*
%TO.P,U1,5,PB2*%
%TO.N,Net-(D3-A)*%
X143040000Y-90250000D03*
%TO.P,U1,6,PA7*%
%TO.N,Net-(D4-A)*%
X144310000Y-90250000D03*
%TO.P,U1,7,PA6*%
%TO.N,Net-(MB1-MOSI)*%
X145580000Y-90250000D03*
%TO.P,U1,8,PA5*%
%TO.N,Net-(MB1-MISO)*%
X145580000Y-95200000D03*
%TO.P,U1,9,PA4*%
%TO.N,Net-(MB1-SCK)*%
X144310000Y-95200000D03*
%TO.P,U1,10,PA3*%
%TO.N,Net-(U1-PA3)*%
X143040000Y-95200000D03*
%TO.P,U1,11,PA2*%
%TO.N,Net-(U1-PA2)*%
X141770000Y-95200000D03*
%TO.P,U1,12,PA1*%
%TO.N,Net-(U1-PA1)*%
X140500000Y-95200000D03*
%TO.P,U1,13,AREF/PA0*%
%TO.N,unconnected-(U1-AREF{slash}PA0-Pad13)*%
X139230000Y-95200000D03*
%TO.P,U1,14,GND*%
%TO.N,Net-(U1-GND)*%
X137960000Y-95200000D03*
%TD*%
D12*
%TO.P,R2,1*%
%TO.N,Net-(D2-K)*%
X141500000Y-83540000D03*
%TO.P,R2,2*%
%TO.N,Net-(U1-GND)*%
X141500000Y-86640000D03*
%TD*%
D13*
%TO.P,R4,1*%
%TO.N,Net-(D4-K)*%
X150250000Y-87000000D03*
%TO.P,R4,2*%
%TO.N,Net-(U1-GND)*%
X150250000Y-83900000D03*
%TD*%
D12*
%TO.P,R3,1*%
%TO.N,Net-(D3-K)*%
X146250000Y-83540000D03*
%TO.P,R3,2*%
%TO.N,Net-(U1-GND)*%
X146250000Y-86640000D03*
%TD*%
D13*
%TO.P,R1,1*%
%TO.N,Net-(D1-K)*%
X136750000Y-87000000D03*
%TO.P,R1,2*%
%TO.N,Net-(U1-GND)*%
X136750000Y-83900000D03*
%TD*%
D14*
%TO.N,Net-(MB1-MOSI)*%
X143750000Y-87250000D03*
X144250000Y-85250000D03*
%TO.N,Net-(MB1-MISO)*%
X140250000Y-92000000D03*
%TO.N,Net-(MB1-SCK)*%
X143500000Y-92750000D03*
%TO.N,Net-(D1-K)*%
X136750000Y-87000000D03*
%TO.N,Net-(D1-A)*%
X135000000Y-89750000D03*
%TO.N,Net-(D2-A)*%
X140500000Y-90250000D03*
%TO.N,Net-(D2-K)*%
X140970000Y-83602500D03*
%TO.N,Net-(D3-A)*%
X143040000Y-90250000D03*
%TO.N,Net-(D3-K)*%
X146250000Y-83540000D03*
%TO.N,Net-(D4-K)*%
X150250000Y-87100000D03*
%TO.N,Net-(D4-A)*%
X144310000Y-90250000D03*
%TO.N,Net-(U1-PA2)*%
X141770000Y-95200000D03*
%TO.N,Net-(U1-PA3)*%
X143040000Y-95200000D03*
%TO.N,Net-(U1-PA1)*%
X136750000Y-97000000D03*
%TO.N,Net-(U1-GND)*%
X137000000Y-93915000D03*
%TO.N,Net-(MB1-SCK)*%
X144310000Y-95200000D03*
%TD*%
D15*
%TO.N,Net-(D1-A)*%
X138975000Y-91525000D02*
X139230000Y-91270000D01*
X135000000Y-89750000D02*
X136775000Y-91525000D01*
X139230000Y-91270000D02*
X139230000Y-90250000D01*
X136775000Y-91525000D02*
X138975000Y-91525000D01*
%TO.N,Net-(MB1-CS)*%
X147965851Y-82215850D02*
X147965851Y-82015851D01*
X147965851Y-82015851D02*
X147235000Y-81285000D01*
X151750000Y-83590256D02*
X150619744Y-82460000D01*
X151490000Y-91525000D02*
X151750000Y-91265000D01*
X150619744Y-82460000D02*
X148210001Y-82460000D01*
X142070001Y-91525000D02*
X151490000Y-91525000D01*
X148210001Y-82460000D02*
X147965851Y-82215850D01*
X151750000Y-91265000D02*
X151750000Y-83590256D01*
X141770000Y-91224999D02*
X142070001Y-91525000D01*
X141770000Y-90250000D02*
X141770000Y-91224999D01*
%TO.N,Net-(MB1-MISO)*%
X140250000Y-92000000D02*
X140400000Y-92150000D01*
X140400000Y-92150000D02*
X143748529Y-92150000D01*
X143748529Y-92150000D02*
X145580000Y-93981471D01*
X145580000Y-93981471D02*
X145580000Y-95200000D01*
%TO.N,Net-(MB1-MOSI)*%
X143750000Y-87250000D02*
X143750000Y-87500000D01*
X145580000Y-89330000D02*
X145580000Y-90250000D01*
X143750000Y-87500000D02*
X145580000Y-89330000D01*
X144695000Y-81285000D02*
X144695000Y-84805000D01*
X144695000Y-84805000D02*
X144250000Y-85250000D01*
%TO.N,Net-(MB1-SCK)*%
X143500000Y-93415001D02*
X143500000Y-92750000D01*
X144310000Y-94225001D02*
X143500000Y-93415001D01*
X144310000Y-95200000D02*
X144310000Y-94225001D01*
%TO.N,Net-(U1-GND)*%
X141500000Y-86640000D02*
X140390000Y-86640000D01*
X140390000Y-86640000D02*
X139750000Y-86000000D01*
X139750000Y-86000000D02*
X138850000Y-86000000D01*
X138850000Y-86000000D02*
X137075000Y-84225000D01*
%TO.N,Net-(D2-K)*%
X140970000Y-83602500D02*
X141542500Y-83602500D01*
X141542500Y-83602500D02*
X141605000Y-83540000D01*
%TO.N,Net-(D3-K)*%
X146250000Y-83540000D02*
X146685000Y-83540000D01*
%TO.N,Net-(U1-PA1)*%
X140500000Y-96174999D02*
X140500000Y-95200000D01*
X136750000Y-97000000D02*
X139674999Y-97000000D01*
X139674999Y-97000000D02*
X140500000Y-96174999D01*
%TO.N,Net-(U1-GND)*%
X137960000Y-95200000D02*
X137960000Y-94875000D01*
X136107500Y-83540000D02*
X136107500Y-82252500D01*
X143605565Y-86000000D02*
X141610000Y-86000000D01*
X136107500Y-82252500D02*
X137075000Y-81285000D01*
X144810865Y-87205300D02*
X143605565Y-86000000D01*
X149785000Y-83540000D02*
X146119700Y-87205300D01*
X141610000Y-86000000D02*
X140970000Y-86640000D01*
X137960000Y-94875000D02*
X137000000Y-93915000D01*
X146119700Y-87205300D02*
X144810865Y-87205300D01*
X151130000Y-83540000D02*
X149785000Y-83540000D01*
X141605000Y-86640000D02*
X140730000Y-86640000D01*
%TO.N,Net-(MB1-+VBATT)*%
X134585000Y-81245000D02*
X134535000Y-81295000D01*
X134535000Y-88785000D02*
X134750000Y-89000000D01*
X134535000Y-81295000D02*
X134535000Y-88785000D01*
X136710000Y-89000000D02*
X137960000Y-90250000D01*
X137960000Y-89904448D02*
X137960000Y-90250000D01*
X134750000Y-89000000D02*
X136710000Y-89000000D01*
%TD*%
M02*
