%TF.GenerationSoftware,KiCad,Pcbnew,8.0.4*%
%TF.CreationDate,2024-08-09T22:32:03-04:00*%
%TF.ProjectId,SaintSays,5361696e-7453-4617-9973-2e6b69636164,rev?*%
%TF.SameCoordinates,Original*%
%TF.FileFunction,Copper,L1,Top*%
%TF.FilePolarity,Positive*%
%FSLAX46Y46*%
G04 Gerber Fmt 4.6, Leading zero omitted, Abs format (unit mm)*
G04 Created by KiCad (PCBNEW 8.0.4) date 2024-08-09 22:32:03*
%MOMM*%
%LPD*%
G01*
G04 APERTURE LIST*
G04 Aperture macros list*
%AMRoundRect*
0 Rectangle with rounded corners*
0 $1 Rounding radius*
0 $2 $3 $4 $5 $6 $7 $8 $9 X,Y pos of 4 corners*
0 Add a 4 corners polygon primitive as box body*
4,1,4,$2,$3,$4,$5,$6,$7,$8,$9,$2,$3,0*
0 Add four circle primitives for the rounded corners*
1,1,$1+$1,$2,$3*
1,1,$1+$1,$4,$5*
1,1,$1+$1,$6,$7*
1,1,$1+$1,$8,$9*
0 Add four rect primitives between the rounded corners*
20,1,$1+$1,$2,$3,$4,$5,0*
20,1,$1+$1,$4,$5,$6,$7,0*
20,1,$1+$1,$6,$7,$8,$9,0*
20,1,$1+$1,$8,$9,$2,$3,0*%
G04 Aperture macros list end*
%TA.AperFunction,SMDPad,CuDef*%
%ADD10R,0.674000X0.836000*%
%TD*%
%TA.AperFunction,SMDPad,CuDef*%
%ADD11R,0.588000X0.858000*%
%TD*%
%TA.AperFunction,SMDPad,CuDef*%
%ADD12R,0.674000X0.858000*%
%TD*%
%TA.AperFunction,SMDPad,CuDef*%
%ADD13RoundRect,0.250001X0.624999X-0.462499X0.624999X0.462499X-0.624999X0.462499X-0.624999X-0.462499X0*%
%TD*%
%TA.AperFunction,SMDPad,CuDef*%
%ADD14RoundRect,0.250001X-0.624999X0.462499X-0.624999X-0.462499X0.624999X-0.462499X0.624999X0.462499X0*%
%TD*%
%TA.AperFunction,ComponentPad*%
%ADD15C,1.750000*%
%TD*%
%TA.AperFunction,ViaPad*%
%ADD16C,0.600000*%
%TD*%
%TA.AperFunction,Conductor*%
%ADD17C,0.200000*%
%TD*%
G04 APERTURE END LIST*
D10*
%TO.P,SW4,1,1*%
%TO.N,Net-(U1-XTAL1{slash}PB0)*%
X150113000Y-96368000D03*
D11*
X150030000Y-92135000D03*
D10*
%TO.P,SW4,2,2*%
%TO.N,Net-(U1-GND)*%
X152487000Y-96368000D03*
D12*
X152487000Y-92135000D03*
%TD*%
D13*
%TO.P,8,1,K*%
%TO.N,Net-(D4-K)*%
X150250000Y-86975000D03*
%TO.P,8,2,A*%
%TO.N,Net-(D4-A)*%
X150250000Y-84000000D03*
%TD*%
%TO.P,1,1,K*%
%TO.N,Net-(D1-K)*%
X136750000Y-87000000D03*
%TO.P,1,2,A*%
%TO.N,Net-(D1-A)*%
X136750000Y-84025000D03*
%TD*%
D10*
%TO.P,SW1,1,1*%
%TO.N,Net-(U1-PA7)*%
X134703000Y-95848000D03*
D11*
X134620000Y-91615000D03*
D10*
%TO.P,SW1,2,2*%
%TO.N,Net-(U1-GND)*%
X137077000Y-95848000D03*
D12*
X137077000Y-91615000D03*
%TD*%
D14*
%TO.P,2,1,K*%
%TO.N,Net-(D2-K)*%
X141500000Y-83602500D03*
%TO.P,2,2,A*%
%TO.N,Net-(D2-A)*%
X141500000Y-86577500D03*
%TD*%
%TO.P,4,1,K*%
%TO.N,Net-(D3-K)*%
X146250000Y-83602500D03*
%TO.P,4,2,A*%
%TO.N,Net-(D3-A)*%
X146250000Y-86577500D03*
%TD*%
D15*
%TO.P,MB1,1,+VBATT*%
%TO.N,unconnected-(MB1-+VBATT-Pad1)*%
X134535000Y-81285000D03*
%TO.P,MB1,2,GND*%
%TO.N,unconnected-(MB1-GND-Pad2)*%
X137075000Y-81285000D03*
%TO.P,MB1,3,MISO*%
%TO.N,Net-(MB1-CLK)*%
X139615000Y-81285000D03*
%TO.P,MB1,4,SCK*%
%TO.N,Net-(MB1-SCK)*%
X142155000Y-81285000D03*
%TO.P,MB1,5,MOSI*%
%TO.N,Net-(MB1-MOSI)*%
X144695000Y-81285000D03*
%TO.P,MB1,6,CS*%
%TO.N,Net-(MB1-CS)*%
X147235000Y-81285000D03*
%TO.P,MB1,7,+3V3*%
%TO.N,Net-(MB1-+3V3)*%
X149775000Y-81285000D03*
%TO.P,MB1,8,GND*%
%TO.N,Net-(U1-GND)*%
X152315000Y-81285000D03*
%TO.P,MB1,9,CLK*%
%TO.N,Net-(MB1-CLK)*%
X134535000Y-99065000D03*
%TO.P,MB1,10,NC*%
%TO.N,unconnected-(MB1-NC-Pad10)*%
X137075000Y-99065000D03*
%TO.P,MB1,11,NC*%
%TO.N,unconnected-(MB1-NC-Pad11)*%
X139615000Y-99065000D03*
%TO.P,MB1,12,NC*%
%TO.N,unconnected-(MB1-NC-Pad12)*%
X142155000Y-99065000D03*
%TO.P,MB1,13,SCL*%
%TO.N,Net-(MB1-SCK)*%
X144695000Y-99065000D03*
%TO.P,MB1,14,SDA*%
%TO.N,Net-(MB1-MOSI)*%
X147235000Y-99065000D03*
%TO.P,MB1,15,3V3+*%
%TO.N,unconnected-(MB1-3V3+-Pad15)*%
X149775000Y-99065000D03*
%TO.P,MB1,16,GND*%
%TO.N,unconnected-(MB1-GND-Pad16)*%
X152315000Y-99065000D03*
%TD*%
D10*
%TO.P,SW3,1,1*%
%TO.N,Net-(U1-XTAL2{slash}PB1)*%
X144913000Y-97233000D03*
D11*
X144830000Y-93000000D03*
D10*
%TO.P,SW3,2,2*%
%TO.N,Net-(U1-GND)*%
X147287000Y-97233000D03*
D12*
X147287000Y-93000000D03*
%TD*%
D10*
%TO.P,SW2,1,1*%
%TO.N,Net-(U1-PB2)*%
X139613000Y-97233000D03*
D11*
X139530000Y-93000000D03*
D10*
%TO.P,SW2,2,2*%
%TO.N,Net-(U1-GND)*%
X141987000Y-97233000D03*
D12*
X141987000Y-93000000D03*
%TD*%
D16*
%TO.N,Net-(D1-K)*%
X136750000Y-87000000D03*
%TO.N,Net-(D1-A)*%
X143230000Y-89600000D03*
%TO.N,Net-(D2-A)*%
X144500000Y-89600000D03*
%TO.N,Net-(D2-K)*%
X141500000Y-83602500D03*
%TO.N,Net-(D3-A)*%
X145770000Y-89600000D03*
%TO.N,Net-(D3-K)*%
X146250000Y-83540000D03*
%TO.N,Net-(D4-K)*%
X150250000Y-87100000D03*
%TO.N,Net-(D4-A)*%
X147040000Y-89600000D03*
%TO.N,Net-(U1-XTAL1{slash}PB0)*%
X147040000Y-94550000D03*
%TO.N,Net-(U1-XTAL2{slash}PB1)*%
X145770000Y-94550000D03*
%TO.N,Net-(U1-PA7)*%
X135500000Y-94000000D03*
%TO.N,Net-(U1-GND)*%
X148310000Y-89600000D03*
%TO.N,Net-(MB1-CS)*%
X148100000Y-85600000D03*
%TO.N,Net-(MB1-SCK)*%
X143600000Y-97000000D03*
X144095000Y-87400000D03*
%TO.N,Net-(MB1-MOSI)*%
X140690000Y-94550000D03*
%TO.N,Net-(U1-PB2)*%
X143230000Y-94550000D03*
%TO.N,Net-(MB1-+3V3)*%
X152200000Y-85600000D03*
%TO.N,Net-(MB1-CLK)*%
X140690000Y-89600000D03*
%TD*%
D17*
%TO.N,Net-(D1-A)*%
X143230000Y-89600000D02*
X142325000Y-89600000D01*
X142325000Y-89600000D02*
X136750000Y-84025000D01*
%TO.N,Net-(D2-A)*%
X141500000Y-87000000D02*
X141500000Y-86577500D01*
X144500000Y-89600000D02*
X144100000Y-89600000D01*
X144100000Y-89600000D02*
X141500000Y-87000000D01*
%TO.N,Net-(D3-A)*%
X145770000Y-87057500D02*
X146250000Y-86577500D01*
X145770000Y-89600000D02*
X145770000Y-87057500D01*
%TO.N,Net-(D4-A)*%
X147040000Y-89600000D02*
X148800000Y-87840000D01*
X148800000Y-87840000D02*
X148800000Y-85450000D01*
X148800000Y-85450000D02*
X150250000Y-84000000D01*
%TO.N,Net-(U1-XTAL1{slash}PB0)*%
X147040000Y-94550000D02*
X147615000Y-94550000D01*
X150113000Y-96368000D02*
X150200000Y-96281000D01*
X150030000Y-92135000D02*
X150030000Y-96285000D01*
X150030000Y-96285000D02*
X150113000Y-96368000D01*
X147615000Y-94550000D02*
X150030000Y-92135000D01*
%TO.N,Net-(U1-XTAL2{slash}PB1)*%
X144830000Y-93610000D02*
X144830000Y-93000000D01*
X145770000Y-94550000D02*
X144830000Y-93610000D01*
%TO.N,Net-(U1-PA7)*%
X134620000Y-95765000D02*
X134703000Y-95848000D01*
X135500000Y-94000000D02*
X134620000Y-94880000D01*
X134620000Y-94880000D02*
X134620000Y-95765000D01*
X134620000Y-93120000D02*
X134620000Y-91615000D01*
X135500000Y-94000000D02*
X134620000Y-93120000D01*
%TO.N,Net-(U1-GND)*%
X141987000Y-93000000D02*
X142528529Y-93000000D01*
X145954000Y-95900000D02*
X147304000Y-97250000D01*
X137515000Y-93915000D02*
X139600000Y-96000000D01*
X151605000Y-97250000D02*
X152487000Y-96368000D01*
X152487000Y-92135000D02*
X152487000Y-96368000D01*
X149800000Y-89600000D02*
X152335000Y-92135000D01*
X143320000Y-95900000D02*
X144300000Y-95900000D01*
X148300000Y-89610000D02*
X148310000Y-89600000D01*
X139600000Y-96000000D02*
X140754000Y-96000000D01*
X148300000Y-91987000D02*
X148300000Y-89610000D01*
X141987000Y-97233000D02*
X142370000Y-96850000D01*
X147287000Y-93000000D02*
X148300000Y-91987000D01*
X137000000Y-93915000D02*
X137515000Y-93915000D01*
X148310000Y-89600000D02*
X149800000Y-89600000D01*
X137000000Y-93915000D02*
X137000000Y-91692000D01*
X142528529Y-93000000D02*
X144300000Y-94771471D01*
X147304000Y-97250000D02*
X151605000Y-97250000D01*
X141900000Y-97320000D02*
X143320000Y-95900000D01*
X144300000Y-95900000D02*
X145954000Y-95900000D01*
X136990000Y-93925000D02*
X136990000Y-95780000D01*
X140754000Y-96000000D02*
X141987000Y-97233000D01*
X137000000Y-91692000D02*
X137077000Y-91615000D01*
X137000000Y-93915000D02*
X136990000Y-93925000D01*
X152335000Y-92135000D02*
X152487000Y-92135000D01*
X144300000Y-94771471D02*
X144300000Y-95900000D01*
%TO.N,Net-(MB1-CS)*%
X148100000Y-82150000D02*
X147235000Y-81285000D01*
X148100000Y-85600000D02*
X148100000Y-82150000D01*
%TO.N,Net-(MB1-SCK)*%
X143700000Y-87005000D02*
X143700000Y-82830000D01*
X143600000Y-97970000D02*
X144695000Y-99065000D01*
X143700000Y-82830000D02*
X142155000Y-81285000D01*
X144095000Y-87400000D02*
X143700000Y-87005000D01*
X143600000Y-97000000D02*
X143600000Y-97970000D01*
%TO.N,Net-(MB1-MOSI)*%
X139350000Y-94550000D02*
X138700000Y-93900000D01*
X140690000Y-94550000D02*
X139350000Y-94550000D01*
X140300000Y-90600000D02*
X144748529Y-90600000D01*
X145100000Y-90248529D02*
X145100000Y-89000000D01*
X145100000Y-89000000D02*
X144695000Y-88595000D01*
X138700000Y-93900000D02*
X138700000Y-92200000D01*
X144695000Y-88595000D02*
X144695000Y-81285000D01*
X144748529Y-90600000D02*
X145100000Y-90248529D01*
X138700000Y-92200000D02*
X140300000Y-90600000D01*
%TO.N,Net-(U1-PB2)*%
X140430000Y-93900000D02*
X139530000Y-93000000D01*
X142580000Y-93900000D02*
X140430000Y-93900000D01*
X143230000Y-94550000D02*
X142580000Y-93900000D01*
%TO.N,Net-(MB1-+3V3)*%
X152200000Y-83710000D02*
X149775000Y-81285000D01*
X152200000Y-85600000D02*
X152200000Y-83710000D01*
%TO.N,Net-(MB1-CLK)*%
X135200000Y-87929657D02*
X135200000Y-83200000D01*
X140690000Y-89600000D02*
X140090000Y-89000000D01*
X140090000Y-89000000D02*
X136270343Y-89000000D01*
X138400000Y-82500000D02*
X139615000Y-81285000D01*
X135900000Y-82500000D02*
X138400000Y-82500000D01*
X135200000Y-83200000D02*
X135900000Y-82500000D01*
X136270343Y-89000000D02*
X135200000Y-87929657D01*
%TD*%
M02*
