%TF.GenerationSoftware,KiCad,Pcbnew,8.0.4*%
%TF.CreationDate,2024-08-09T22:32:03-04:00*%
%TF.ProjectId,SaintSays,5361696e-7453-4617-9973-2e6b69636164,rev?*%
%TF.SameCoordinates,Original*%
%TF.FileFunction,Legend,Bot*%
%TF.FilePolarity,Positive*%
%FSLAX46Y46*%
G04 Gerber Fmt 4.6, Leading zero omitted, Abs format (unit mm)*
G04 Created by KiCad (PCBNEW 8.0.4) date 2024-08-09 22:32:03*
%MOMM*%
%LPD*%
G01*
G04 APERTURE LIST*
%ADD10C,0.150000*%
%ADD11C,0.120000*%
G04 APERTURE END LIST*
D10*
G36*
X138030000Y-89066120D02*
G01*
X138029511Y-89098973D01*
X138026694Y-89147867D01*
X138020533Y-89197473D01*
X138009972Y-89245882D01*
X137995842Y-89281678D01*
X137968949Y-89326220D01*
X137936210Y-89363852D01*
X137914114Y-89384345D01*
X137872543Y-89413634D01*
X137827280Y-89434554D01*
X137778323Y-89447106D01*
X137725673Y-89451290D01*
X137708106Y-89450855D01*
X137657827Y-89444318D01*
X137606221Y-89427856D01*
X137559099Y-89401709D01*
X137545926Y-89392235D01*
X137507534Y-89356094D01*
X137477633Y-89312941D01*
X137457983Y-89268108D01*
X137452987Y-89273608D01*
X137416110Y-89307218D01*
X137369872Y-89335153D01*
X137319268Y-89351914D01*
X137264298Y-89357501D01*
X137237001Y-89356227D01*
X137186617Y-89347102D01*
X137140467Y-89330879D01*
X137118457Y-89320509D01*
X137075598Y-89293505D01*
X137039351Y-89260293D01*
X137027623Y-89246141D01*
X137000748Y-89201315D01*
X136983663Y-89152826D01*
X136979771Y-89136400D01*
X136971742Y-89084304D01*
X136968324Y-89037299D01*
X137105785Y-89037299D01*
X137107184Y-89065818D01*
X137118381Y-89114819D01*
X137145596Y-89158443D01*
X137164779Y-89174717D01*
X137209767Y-89194336D01*
X137262100Y-89200209D01*
X137290419Y-89198775D01*
X137338916Y-89187303D01*
X137381779Y-89159420D01*
X137403160Y-89129501D01*
X137418364Y-89081507D01*
X137419812Y-89063189D01*
X137561053Y-89063189D01*
X137561755Y-89094200D01*
X137567373Y-89148849D01*
X137580408Y-89198579D01*
X137605994Y-89242463D01*
X137623785Y-89259977D01*
X137667518Y-89285493D01*
X137718346Y-89293998D01*
X137747345Y-89291427D01*
X137795187Y-89273008D01*
X137832407Y-89240265D01*
X137842081Y-89226667D01*
X137862035Y-89180026D01*
X137871104Y-89131775D01*
X137873684Y-89081263D01*
X137873684Y-88982344D01*
X137561053Y-88982344D01*
X137561053Y-89063189D01*
X137419812Y-89063189D01*
X137422323Y-89031437D01*
X137422323Y-88982344D01*
X137105785Y-88982344D01*
X137105785Y-89037299D01*
X136968324Y-89037299D01*
X136968093Y-89034124D01*
X136967055Y-88983810D01*
X136967055Y-88825052D01*
X138030000Y-88825052D01*
X138030000Y-89066120D01*
G37*
G36*
X137901772Y-89834508D02*
G01*
X137357843Y-89535066D01*
X137357843Y-89713363D01*
X137742037Y-89917062D01*
X137357843Y-90107083D01*
X137357843Y-90280739D01*
X138389525Y-89750244D01*
X138389525Y-89574633D01*
X137901772Y-89834508D01*
G37*
G36*
X138030000Y-91062316D02*
G01*
X138029538Y-91101231D01*
X138027113Y-91155324D01*
X138021659Y-91211943D01*
X138013376Y-91261573D01*
X138000446Y-91309734D01*
X137982693Y-91355988D01*
X137959230Y-91401203D01*
X137930058Y-91445381D01*
X137895177Y-91488520D01*
X137855854Y-91528305D01*
X137813600Y-91562785D01*
X137768415Y-91591961D01*
X137720300Y-91615832D01*
X137669253Y-91634398D01*
X137615275Y-91647660D01*
X137558367Y-91655617D01*
X137498527Y-91658269D01*
X137438882Y-91655723D01*
X137382191Y-91648087D01*
X137328454Y-91635360D01*
X137277670Y-91617541D01*
X137229841Y-91594632D01*
X137184965Y-91566632D01*
X137143043Y-91533541D01*
X137104075Y-91495359D01*
X137069637Y-91453929D01*
X137040572Y-91410240D01*
X137016880Y-91364292D01*
X136998562Y-91316085D01*
X136987854Y-91279211D01*
X136978162Y-91230265D01*
X136971485Y-91174939D01*
X136968162Y-91122437D01*
X136967225Y-91074040D01*
X137123370Y-91074040D01*
X137123464Y-91086750D01*
X137125708Y-91135639D01*
X137132720Y-91192359D01*
X137144407Y-91244203D01*
X137160770Y-91291168D01*
X137186576Y-91341088D01*
X137219113Y-91383984D01*
X137246884Y-91411404D01*
X137292391Y-91445679D01*
X137342517Y-91471728D01*
X137397263Y-91489551D01*
X137446413Y-91498120D01*
X137498771Y-91500976D01*
X137530218Y-91499935D01*
X137580119Y-91493573D01*
X137635861Y-91478303D01*
X137687086Y-91454704D01*
X137733795Y-91422776D01*
X137775987Y-91382519D01*
X137805477Y-91345133D01*
X137831636Y-91300869D01*
X137851214Y-91253314D01*
X137857687Y-91230068D01*
X137867342Y-91178281D01*
X137872280Y-91125636D01*
X137873684Y-91074040D01*
X137873684Y-91001744D01*
X137123370Y-91001744D01*
X137123370Y-91074040D01*
X136967225Y-91074040D01*
X136967055Y-91065247D01*
X136967055Y-90844452D01*
X138030000Y-90844452D01*
X138030000Y-91062316D01*
G37*
G36*
X137357843Y-91986531D02*
G01*
X137741304Y-91986531D01*
X137797581Y-91990893D01*
X137848522Y-92007009D01*
X137887334Y-92039966D01*
X137905446Y-92088433D01*
X137906901Y-92110607D01*
X137898977Y-92158952D01*
X137870515Y-92199665D01*
X137821354Y-92224867D01*
X137770898Y-92233591D01*
X137741304Y-92234682D01*
X137357843Y-92234682D01*
X137357843Y-92391974D01*
X137744968Y-92391974D01*
X137797615Y-92389666D01*
X137849124Y-92381880D01*
X137883698Y-92372435D01*
X137930216Y-92348632D01*
X137969566Y-92315280D01*
X137977487Y-92306734D01*
X138007300Y-92265548D01*
X138028595Y-92219173D01*
X138041372Y-92167607D01*
X138045564Y-92118229D01*
X138045631Y-92110851D01*
X138042370Y-92061001D01*
X138030658Y-92008866D01*
X138010428Y-91961892D01*
X137981680Y-91920076D01*
X137977487Y-91915212D01*
X137941860Y-91881309D01*
X137899705Y-91855076D01*
X137883698Y-91848290D01*
X137834184Y-91835267D01*
X137783079Y-91830150D01*
X137744968Y-91829239D01*
X137357843Y-91829239D01*
X137357843Y-91986531D01*
G37*
G36*
X137357843Y-92591277D02*
G01*
X137357843Y-92748569D01*
X137421835Y-92748569D01*
X137387601Y-92783885D01*
X137359797Y-92823796D01*
X137344685Y-92870488D01*
X137342212Y-92903175D01*
X137348540Y-92953475D01*
X137365616Y-93001480D01*
X137380558Y-93030181D01*
X137529790Y-92959839D01*
X137506343Y-92916608D01*
X137498527Y-92874354D01*
X137507561Y-92825342D01*
X137540011Y-92784069D01*
X137587764Y-92760853D01*
X137643077Y-92750534D01*
X137687327Y-92748569D01*
X138030000Y-92748569D01*
X138030000Y-92591277D01*
X137357843Y-92591277D01*
G37*
G36*
X136873265Y-93292742D02*
G01*
X137575219Y-93292742D01*
X137357843Y-93509385D01*
X137357843Y-93716015D01*
X137640188Y-93426831D01*
X138030000Y-93737020D01*
X138030000Y-93537473D01*
X137746434Y-93317411D01*
X137771102Y-93292742D01*
X138030000Y-93292742D01*
X138030000Y-93135450D01*
X136873265Y-93135450D01*
X136873265Y-93292742D01*
G37*
G36*
X137357843Y-93989323D02*
G01*
X138030000Y-93989323D01*
X138030000Y-93832030D01*
X137357843Y-93832030D01*
X137357843Y-93989323D01*
G37*
G36*
X137083314Y-93816399D02*
G01*
X137034297Y-93829231D01*
X137012484Y-93846196D01*
X136986876Y-93888233D01*
X136982686Y-93917759D01*
X136994326Y-93965711D01*
X137012484Y-93989811D01*
X137056417Y-94016088D01*
X137084047Y-94019609D01*
X137132113Y-94007969D01*
X137156099Y-93989811D01*
X137182375Y-93945983D01*
X137185896Y-93918492D01*
X137174352Y-93870445D01*
X137156343Y-93846196D01*
X137113848Y-93820589D01*
X137083314Y-93816399D01*
G37*
G36*
X137357843Y-94179832D02*
G01*
X137357843Y-94337124D01*
X137421102Y-94337124D01*
X137386588Y-94378936D01*
X137361934Y-94423281D01*
X137347142Y-94470160D01*
X137342212Y-94519574D01*
X137346806Y-94574834D01*
X137360591Y-94623621D01*
X137387083Y-94670771D01*
X137415729Y-94701779D01*
X137457159Y-94729052D01*
X137504497Y-94745802D01*
X137554031Y-94754673D01*
X137611139Y-94758144D01*
X137619916Y-94758199D01*
X138030000Y-94758199D01*
X138030000Y-94600907D01*
X137656064Y-94600907D01*
X137605252Y-94598743D01*
X137556268Y-94590221D01*
X137519288Y-94573551D01*
X137489367Y-94533117D01*
X137480979Y-94481185D01*
X137480942Y-94476831D01*
X137488086Y-94425781D01*
X137514479Y-94382110D01*
X137531744Y-94368632D01*
X137579841Y-94349432D01*
X137629753Y-94340847D01*
X137684078Y-94337401D01*
X137706866Y-94337124D01*
X138030000Y-94337124D01*
X138030000Y-94179832D01*
X137357843Y-94179832D01*
G37*
G36*
X137891270Y-95175854D02*
G01*
X137891270Y-95572016D01*
X138030000Y-95572016D01*
X138030000Y-94870795D01*
X137498527Y-95302372D01*
X137498527Y-94962386D01*
X137359797Y-94962386D01*
X137359797Y-95606943D01*
X137891270Y-95175854D01*
G37*
G36*
X137710547Y-95675924D02*
G01*
X137764660Y-95681162D01*
X137815236Y-95692686D01*
X137862273Y-95710494D01*
X137905773Y-95734588D01*
X137945736Y-95764968D01*
X137974514Y-95794365D01*
X138006609Y-95839409D01*
X138029144Y-95888987D01*
X138042119Y-95943099D01*
X138045631Y-95993091D01*
X138045287Y-96006712D01*
X138037021Y-96060072D01*
X138017733Y-96111630D01*
X137991815Y-96155266D01*
X137957459Y-96197522D01*
X138030000Y-96197522D01*
X138030000Y-96347732D01*
X137357843Y-96347732D01*
X137357843Y-96197522D01*
X137436978Y-96197522D01*
X137414767Y-96174067D01*
X137383024Y-96131221D01*
X137360350Y-96086084D01*
X137346746Y-96038657D01*
X137344863Y-96018004D01*
X137480942Y-96018004D01*
X137486738Y-96067439D01*
X137506502Y-96114710D01*
X137540293Y-96154535D01*
X137551940Y-96163920D01*
X137594949Y-96188535D01*
X137644399Y-96202894D01*
X137694410Y-96207048D01*
X137705945Y-96206843D01*
X137759783Y-96199663D01*
X137807229Y-96182227D01*
X137848283Y-96154535D01*
X137881656Y-96114537D01*
X137901177Y-96066746D01*
X137906901Y-96016538D01*
X137900986Y-95969293D01*
X137880815Y-95923493D01*
X137846329Y-95884159D01*
X137834796Y-95874992D01*
X137791824Y-95850950D01*
X137741888Y-95836925D01*
X137690990Y-95832868D01*
X137679929Y-95833074D01*
X137627999Y-95840286D01*
X137581697Y-95857803D01*
X137541025Y-95885624D01*
X137509341Y-95921325D01*
X137488041Y-95966548D01*
X137480942Y-96018004D01*
X137344863Y-96018004D01*
X137342212Y-95988939D01*
X137344650Y-95948051D01*
X137356259Y-95894474D01*
X137377429Y-95845175D01*
X137408158Y-95800153D01*
X137442107Y-95764968D01*
X137454789Y-95754143D01*
X137495169Y-95725859D01*
X137539052Y-95703860D01*
X137586439Y-95688146D01*
X137637330Y-95678718D01*
X137691723Y-95675575D01*
X137710547Y-95675924D01*
G37*
X149234819Y-91313095D02*
X150044342Y-91313095D01*
X150044342Y-91313095D02*
X150139580Y-91360714D01*
X150139580Y-91360714D02*
X150187200Y-91408333D01*
X150187200Y-91408333D02*
X150234819Y-91503571D01*
X150234819Y-91503571D02*
X150234819Y-91694047D01*
X150234819Y-91694047D02*
X150187200Y-91789285D01*
X150187200Y-91789285D02*
X150139580Y-91836904D01*
X150139580Y-91836904D02*
X150044342Y-91884523D01*
X150044342Y-91884523D02*
X149234819Y-91884523D01*
X150234819Y-92884523D02*
X150234819Y-92313095D01*
X150234819Y-92598809D02*
X149234819Y-92598809D01*
X149234819Y-92598809D02*
X149377676Y-92503571D01*
X149377676Y-92503571D02*
X149472914Y-92408333D01*
X149472914Y-92408333D02*
X149520533Y-92313095D01*
X140134819Y-84923333D02*
X139658628Y-84590000D01*
X140134819Y-84351905D02*
X139134819Y-84351905D01*
X139134819Y-84351905D02*
X139134819Y-84732857D01*
X139134819Y-84732857D02*
X139182438Y-84828095D01*
X139182438Y-84828095D02*
X139230057Y-84875714D01*
X139230057Y-84875714D02*
X139325295Y-84923333D01*
X139325295Y-84923333D02*
X139468152Y-84923333D01*
X139468152Y-84923333D02*
X139563390Y-84875714D01*
X139563390Y-84875714D02*
X139611009Y-84828095D01*
X139611009Y-84828095D02*
X139658628Y-84732857D01*
X139658628Y-84732857D02*
X139658628Y-84351905D01*
X139230057Y-85304286D02*
X139182438Y-85351905D01*
X139182438Y-85351905D02*
X139134819Y-85447143D01*
X139134819Y-85447143D02*
X139134819Y-85685238D01*
X139134819Y-85685238D02*
X139182438Y-85780476D01*
X139182438Y-85780476D02*
X139230057Y-85828095D01*
X139230057Y-85828095D02*
X139325295Y-85875714D01*
X139325295Y-85875714D02*
X139420533Y-85875714D01*
X139420533Y-85875714D02*
X139563390Y-85828095D01*
X139563390Y-85828095D02*
X140134819Y-85256667D01*
X140134819Y-85256667D02*
X140134819Y-85875714D01*
X152524819Y-85283333D02*
X152048628Y-84950000D01*
X152524819Y-84711905D02*
X151524819Y-84711905D01*
X151524819Y-84711905D02*
X151524819Y-85092857D01*
X151524819Y-85092857D02*
X151572438Y-85188095D01*
X151572438Y-85188095D02*
X151620057Y-85235714D01*
X151620057Y-85235714D02*
X151715295Y-85283333D01*
X151715295Y-85283333D02*
X151858152Y-85283333D01*
X151858152Y-85283333D02*
X151953390Y-85235714D01*
X151953390Y-85235714D02*
X152001009Y-85188095D01*
X152001009Y-85188095D02*
X152048628Y-85092857D01*
X152048628Y-85092857D02*
X152048628Y-84711905D01*
X151858152Y-86140476D02*
X152524819Y-86140476D01*
X151477200Y-85902381D02*
X152191485Y-85664286D01*
X152191485Y-85664286D02*
X152191485Y-86283333D01*
X144884819Y-84923333D02*
X144408628Y-84590000D01*
X144884819Y-84351905D02*
X143884819Y-84351905D01*
X143884819Y-84351905D02*
X143884819Y-84732857D01*
X143884819Y-84732857D02*
X143932438Y-84828095D01*
X143932438Y-84828095D02*
X143980057Y-84875714D01*
X143980057Y-84875714D02*
X144075295Y-84923333D01*
X144075295Y-84923333D02*
X144218152Y-84923333D01*
X144218152Y-84923333D02*
X144313390Y-84875714D01*
X144313390Y-84875714D02*
X144361009Y-84828095D01*
X144361009Y-84828095D02*
X144408628Y-84732857D01*
X144408628Y-84732857D02*
X144408628Y-84351905D01*
X143884819Y-85256667D02*
X143884819Y-85875714D01*
X143884819Y-85875714D02*
X144265771Y-85542381D01*
X144265771Y-85542381D02*
X144265771Y-85685238D01*
X144265771Y-85685238D02*
X144313390Y-85780476D01*
X144313390Y-85780476D02*
X144361009Y-85828095D01*
X144361009Y-85828095D02*
X144456247Y-85875714D01*
X144456247Y-85875714D02*
X144694342Y-85875714D01*
X144694342Y-85875714D02*
X144789580Y-85828095D01*
X144789580Y-85828095D02*
X144837200Y-85780476D01*
X144837200Y-85780476D02*
X144884819Y-85685238D01*
X144884819Y-85685238D02*
X144884819Y-85399524D01*
X144884819Y-85399524D02*
X144837200Y-85304286D01*
X144837200Y-85304286D02*
X144789580Y-85256667D01*
X135454819Y-85333333D02*
X134978628Y-85000000D01*
X135454819Y-84761905D02*
X134454819Y-84761905D01*
X134454819Y-84761905D02*
X134454819Y-85142857D01*
X134454819Y-85142857D02*
X134502438Y-85238095D01*
X134502438Y-85238095D02*
X134550057Y-85285714D01*
X134550057Y-85285714D02*
X134645295Y-85333333D01*
X134645295Y-85333333D02*
X134788152Y-85333333D01*
X134788152Y-85333333D02*
X134883390Y-85285714D01*
X134883390Y-85285714D02*
X134931009Y-85238095D01*
X134931009Y-85238095D02*
X134978628Y-85142857D01*
X134978628Y-85142857D02*
X134978628Y-84761905D01*
X135454819Y-86285714D02*
X135454819Y-85714286D01*
X135454819Y-86000000D02*
X134454819Y-86000000D01*
X134454819Y-86000000D02*
X134597676Y-85904762D01*
X134597676Y-85904762D02*
X134692914Y-85809524D01*
X134692914Y-85809524D02*
X134740533Y-85714286D01*
D11*
%TO.C,U1*%
X140065000Y-90125000D02*
X140065000Y-92075000D01*
X140065000Y-94025000D02*
X140065000Y-92075000D01*
X148935000Y-90125000D02*
X148935000Y-92075000D01*
X148935000Y-94025000D02*
X148935000Y-92075000D01*
X149200000Y-95015000D02*
X148870000Y-94775000D01*
X149200000Y-94535000D01*
X149200000Y-95015000D01*
G36*
X149200000Y-95015000D02*
G01*
X148870000Y-94775000D01*
X149200000Y-94535000D01*
X149200000Y-95015000D01*
G37*
%TO.C,R2*%
X140590000Y-85817064D02*
X140590000Y-84362936D01*
X142410000Y-85817064D02*
X142410000Y-84362936D01*
%TO.C,R4*%
X149340000Y-84722936D02*
X149340000Y-86177064D01*
X151160000Y-84722936D02*
X151160000Y-86177064D01*
%TO.C,R3*%
X145340000Y-85817064D02*
X145340000Y-84362936D01*
X147160000Y-85817064D02*
X147160000Y-84362936D01*
%TO.C,R1*%
X135840000Y-84722936D02*
X135840000Y-86177064D01*
X137660000Y-84722936D02*
X137660000Y-86177064D01*
%TD*%
M02*
