M48
; DRILL file {KiCad 8.0.4} date 2024-08-09T22:32:21-0400
; FORMAT={-:-/ absolute / inch / decimal}
; #@! TF.CreationDate,2024-08-09T22:32:21-04:00
; #@! TF.GenerationSoftware,Kicad,Pcbnew,8.0.4
; #@! TF.FileFunction,Plated,1,2,PTH
FMAT,2
INCH
; #@! TA.AperFunction,Plated,PTH,ViaDrill
T1C0.0118
; #@! TA.AperFunction,Plated,PTH,ComponentDrill
T2C0.0374
%
G90
G05
T1
X5.3346Y-3.7008
X5.3839Y-3.4252
X5.539Y-3.5276
X5.539Y-3.7224
X5.5709Y-3.2914
X5.639Y-3.5276
X5.639Y-3.7224
X5.6535Y-3.8189
X5.673Y-3.4409
X5.689Y-3.5276
X5.739Y-3.5276
X5.739Y-3.7224
X5.7579Y-3.289
X5.789Y-3.5276
X5.789Y-3.7224
X5.8307Y-3.3701
X5.839Y-3.5276
X5.9154Y-3.4291
X5.9921Y-3.3701
T2
X5.2967Y-3.2002
X5.2967Y-3.9002
X5.3967Y-3.2002
X5.3967Y-3.9002
X5.4967Y-3.2002
X5.4967Y-3.9002
X5.5967Y-3.2002
X5.5967Y-3.9002
X5.6967Y-3.2002
X5.6967Y-3.9002
X5.7967Y-3.2002
X5.7967Y-3.9002
X5.8967Y-3.2002
X5.8967Y-3.9002
X5.9967Y-3.2002
X5.9967Y-3.9002
M30
